<svg width="1440" height="486" viewBox="0 0 1440 486" fill="none" xmlns="http://www.w3.org/2000/svg">
<g opacity="0.3">
<path d="M550.996 485.825C545.853 485.825 540.847 485.428 536.036 484.638C525.946 482.979 516.624 479.573 508.33 474.514C499.414 469.078 491.594 461.671 485.086 452.499C472.006 434.064 465.462 411.987 459.133 390.636C457.89 386.443 456.604 382.108 455.299 377.902C446.393 349.234 435.104 324.121 420.788 301.131C392.231 255.269 352.069 216.129 304.643 187.942C249.796 155.347 190.827 139.109 138.596 142.223C107.897 144.053 67.3361 161.462 49.2083 191.192C38.4501 208.837 37.5827 228.417 46.7013 247.815L46.5202 247.897C41.7391 237.724 39.6559 227.525 40.3304 217.585C40.9492 208.466 43.878 199.552 49.0372 191.091C57.2425 177.633 70.7743 165.705 88.1699 156.596C104.244 148.18 122.147 143.005 138.584 142.025C165.918 140.398 194.989 144.01 224.989 152.766C252.184 160.704 279.019 172.482 304.747 187.772C352.2 215.974 392.386 255.136 420.959 301.025C435.283 324.032 446.578 349.157 455.49 377.842C456.797 382.048 458.083 386.385 459.324 390.577C465.647 411.913 472.187 433.974 485.249 452.382C497.882 470.187 514.981 480.972 536.069 484.439C565.274 489.24 600.738 479.198 630.933 457.574C674.447 426.413 704.646 381.056 733.852 337.195C738.971 329.506 744.264 321.557 749.505 313.88C763.11 293.946 781.536 268.116 803.435 245.104C825.818 221.582 848.564 204.301 872.974 192.269C887.914 184.905 903.748 179.944 920.035 177.523C935.079 175.287 951.002 175.148 967.363 177.108C995.427 180.471 1025.66 189.97 1059.8 206.147C1127.01 238.003 1194.15 276.668 1259.35 321.073C1321.32 363.277 1382.1 411.034 1440 463.014L1439.86 463.158C1319.84 355.407 1191.94 268.996 1059.71 206.323C985.002 170.914 925.694 166.503 873.063 192.443C819.519 218.832 782.115 266.455 749.67 313.987C744.431 321.662 739.139 329.612 734.019 337.3C704.805 381.177 674.596 426.548 631.052 457.73C616.981 467.807 601.151 475.667 585.276 480.459C576.889 482.991 568.553 484.646 560.495 485.38C557.283 485.678 554.114 485.825 550.996 485.825Z" fill="#94CDFF"/>
<path d="M556.024 474.892C542.909 474.892 530.76 472.443 519.902 467.608C507.795 462.217 497.347 453.863 488.847 442.781C488.095 441.799 487.349 440.784 486.629 439.761C473.688 421.406 466.854 399.616 460.246 378.542C458.909 374.283 457.528 369.878 456.127 365.604C447.785 340.152 437.739 317.719 425.413 297.028C423.895 294.481 422.323 291.928 420.737 289.441C391.76 243.973 351.272 205.329 303.651 177.685C248.408 145.646 189.271 130.08 137.134 133.857C106.659 136.088 66.2843 153.781 48.0789 183.283C37.1775 200.949 35.9439 220.569 44.5074 240.023L44.3244 240.101C39.8357 229.905 37.9913 219.687 38.8448 209.734C39.6288 200.594 42.6769 191.661 47.9077 183.182C56.1967 169.747 69.6886 157.806 86.9211 148.65C102.848 140.187 120.674 134.864 137.116 133.662C164.417 131.685 193.519 134.952 223.615 143.372C250.875 151 277.837 162.488 303.751 177.518C351.399 205.177 391.909 243.845 420.904 289.338C422.49 291.826 424.064 294.381 425.582 296.93C437.916 317.635 447.968 340.08 456.314 365.545C457.717 369.82 459.098 374.225 460.435 378.486C467.041 399.546 473.869 421.321 486.792 439.65C487.51 440.669 488.257 441.684 489.007 442.664C506.571 465.572 530.706 474.892 556.086 474.892C556.225 474.892 556.363 474.892 556.502 474.892C556.343 474.89 556.184 474.892 556.024 474.892ZM561.438 474.756C585.034 473.567 609.381 464.673 630.269 451.441C675.325 422.782 707.707 378.519 739.024 335.713C740.313 333.949 741.603 332.188 742.892 330.428C745.723 326.563 749.08 321.988 752.506 317.376C767.876 296.692 786.477 272.626 807.9 250.965C830.694 227.916 853.465 210.812 877.515 198.673C892.292 191.223 907.909 185.975 923.931 183.074C938.776 180.387 954.465 179.627 970.555 180.816C998.353 182.871 1028.24 190.663 1061.93 204.638C1094.78 218.242 1121.78 231.048 1146.9 244.94C1182.49 264.637 1216.39 287.333 1244.86 306.936C1311.05 352.64 1375.99 404.537 1437.89 461.187L1437.75 461.329C1375.87 404.687 1310.93 352.794 1244.75 307.096C1216.28 287.495 1182.39 264.803 1146.8 245.111C1121.69 231.224 1094.69 218.422 1061.85 204.822C988.466 174.377 929.918 172.478 877.606 198.849C823.312 226.249 784.647 274.457 752.667 317.493C749.239 322.105 745.884 326.678 743.053 330.545C741.764 332.303 740.474 334.066 739.185 335.83C707.858 378.65 675.464 422.929 630.376 451.609C619.196 458.69 607.3 464.315 595.016 468.326C583.581 472.056 572.31 474.213 561.438 474.756Z" fill="#94CDFF"/>
<path d="M561.569 464.21C559.991 464.21 558.423 464.177 556.867 464.109C543.763 463.541 531.637 460.592 520.825 455.339C509 449.595 498.755 441.087 490.377 430.05C489.633 429.066 488.891 428.049 488.174 427.026C475.379 408.761 468.26 387.262 461.377 366.473C459.943 362.14 458.459 357.658 456.954 353.31C448.2 327.944 437.889 305.691 425.43 285.279C423.888 282.755 422.292 280.223 420.683 277.756C391.286 232.685 350.472 194.536 302.656 167.435C247.019 135.952 187.715 121.056 135.669 125.496C106.366 128.035 66.1086 144.72 46.9681 175.348C35.9095 193.043 34.2999 212.715 42.3122 232.238L42.1272 232.31C37.929 222.082 36.3273 211.841 37.362 201.871C38.313 192.701 41.4885 183.744 46.799 175.246C55.1754 161.843 68.6236 149.898 85.6909 140.699C101.469 132.195 119.213 126.728 135.651 125.303C162.92 122.978 192.054 125.898 222.244 133.983C249.572 141.302 276.659 152.5 302.755 167.267C350.599 194.386 391.435 232.556 420.85 277.653C422.46 280.122 424.057 282.653 425.599 285.181C438.065 305.605 448.381 327.871 457.139 353.251C458.644 357.602 460.128 362.083 461.562 366.416C468.443 387.193 475.556 408.677 488.335 426.921C489.052 427.944 489.79 428.959 490.534 429.938C524.579 474.787 584.914 469.972 629.604 445.307C676.54 419.174 711.421 375.74 745.153 333.737L745.5 333.305C748.767 329.234 752.145 325.026 755.508 320.87C790.989 277.032 829.989 231.98 882.058 205.074C896.676 197.536 912.078 192.001 927.833 188.622C942.486 185.48 957.936 184.1 973.752 184.521C1001.33 185.255 1030.87 191.341 1064.07 203.126C1098.96 215.467 1125.22 226.812 1149.2 239.91C1183.38 258.611 1216.49 282.241 1245.69 303.091C1310.73 349.761 1374.68 402.336 1435.78 459.35L1435.64 459.491C1374.55 402.482 1310.6 349.913 1245.58 303.247C1216.37 282.402 1183.27 258.775 1149.11 240.08C1125.13 226.985 1098.88 215.645 1064 203.308C992.037 177.762 934.253 178.377 882.15 205.244C830.114 232.132 791.131 277.165 755.663 320.987C752.3 325.143 748.922 329.353 745.655 333.422L745.309 333.854C728.498 354.785 711.116 376.429 692.346 395.762C671.251 417.488 650.76 433.748 629.699 445.473C607.666 457.633 583.664 464.21 561.569 464.21Z" fill="#94CDFF"/>
<path d="M1433.53 457.65C1373.23 400.274 1310.27 347.03 1246.41 299.398C1243.7 297.395 1240.99 295.383 1238.27 293.365C1210.61 272.828 1182 251.592 1151.41 235.048C1121.74 219.043 1091.66 209.257 1066.15 201.795C995.746 181.07 938.724 184.199 886.7 211.638C833.296 239.889 791.915 286.793 758.665 324.483C756.67 326.745 754.678 329.011 752.682 331.279C751.21 332.954 749.736 334.628 748.261 336.301C729.33 357.783 712.109 376.989 693.082 394.514C671.345 414.534 650.394 429.197 629.027 439.34C609.003 448.848 587.612 453.877 567.715 453.879C564.09 453.879 560.518 453.713 557.009 453.376C544.195 452.144 532.333 448.684 521.752 443.09C510.206 436.986 500.164 428.316 491.901 417.32C491.163 416.334 490.427 415.315 489.714 414.29C477.07 396.121 469.674 374.924 462.523 354.426C460.983 350.011 459.39 345.444 457.778 341.011C448.606 315.725 438.029 293.65 425.446 273.523C423.88 271.018 422.259 268.51 420.627 266.065C390.808 221.389 349.67 183.736 301.661 157.176C245.63 126.249 186.161 112.026 134.207 117.124C98.6893 120.679 62.37 141.341 45.8836 167.368C34.652 185.101 32.6603 204.836 40.1195 224.44L39.9325 224.508C36.0268 214.244 34.6659 203.971 35.8875 193.976C37.0117 184.773 40.3185 175.787 45.7145 167.265C54.1785 153.901 67.5829 141.956 84.4791 132.723C100.106 124.184 117.758 118.575 134.187 116.931C161.423 114.257 190.588 116.832 220.871 124.58C248.264 131.591 275.481 142.5 301.761 157.004C349.799 183.58 390.959 221.254 420.796 265.957C422.43 268.405 424.051 270.915 425.617 273.419C438.208 293.558 448.789 315.645 457.967 340.943C459.579 345.377 461.172 349.942 462.712 354.359C469.859 374.846 477.251 396.029 489.879 414.177C490.592 415.2 491.326 416.217 492.062 417.201C527.603 464.501 588.012 458.593 628.941 439.163C677.773 415.979 715.141 373.581 748.112 336.172C749.586 334.498 751.059 332.823 752.533 331.15C754.527 328.882 756.52 326.616 758.516 324.354C777.495 302.841 796.238 281.935 816.843 262.67C840.538 240.515 863.359 223.767 886.609 211.466C901.073 203.836 916.257 198.014 931.738 194.163C946.207 190.562 961.42 188.563 976.955 188.22C1004.35 187.615 1033.55 191.995 1066.21 201.607C1091.73 209.073 1121.82 218.863 1151.51 234.878C1182.11 251.428 1210.72 272.67 1238.4 293.211C1241.11 295.229 1243.83 297.241 1246.53 299.244C1310.4 346.88 1373.37 400.13 1433.67 457.512L1433.53 457.65Z" fill="#94CDFF"/>
<path d="M1431.42 455.811C1370.78 396.972 1308.81 343.05 1247.24 295.549C1243.55 292.707 1239.78 289.777 1236.14 286.945C1210.03 266.662 1183.04 245.687 1153.72 230.016C1124.44 214.423 1094.11 206.233 1068.31 200.28C999.61 184.281 943.348 189.922 891.249 218.032C841.555 244.942 802.623 285.407 764.973 324.539L760.838 328.835C757.573 332.229 754.197 335.737 750.868 339.178C713.18 378.086 675.452 414.552 628.354 433.203C616.926 437.73 605.191 440.866 593.472 442.531C580.887 444.317 568.662 444.343 557.136 442.605C544.617 440.718 533.024 436.754 522.677 430.822C511.418 424.368 501.577 415.539 493.431 404.586C492.697 403.594 491.967 402.573 491.26 401.551C478.771 383.488 471.109 362.604 463.7 342.406C462.046 337.9 460.335 333.239 458.608 328.712C449.01 303.504 438.17 281.607 425.468 261.768C423.88 259.29 422.235 256.801 420.578 254.375C390.339 210.096 348.876 172.939 300.67 146.919C244.244 116.552 184.607 102.999 132.743 108.759C97.5495 112.75 61.3953 133.557 44.8254 159.358C33.4067 177.135 31.0211 196.946 37.9253 216.65L37.7362 216.714C34.123 206.405 33.0068 196.093 34.4175 186.069C35.7187 176.827 39.1628 167.805 44.6543 159.256C53.2099 145.937 66.5665 134.004 83.2836 124.744C98.7553 116.174 116.312 110.429 132.719 108.567C159.924 105.546 189.118 107.773 219.496 115.186C246.957 121.889 274.299 132.507 300.764 146.749C348.997 172.783 390.484 209.963 420.741 254.268C422.398 256.696 424.046 259.186 425.633 261.665C438.343 281.513 449.189 303.422 458.791 328.644C460.518 333.17 462.229 337.833 463.883 342.34C471.288 362.526 478.946 383.401 491.422 401.441C492.126 402.46 492.856 403.479 493.588 404.471C528.274 451.113 585.907 449.804 628.277 433.024C675.336 414.388 713.048 377.935 750.721 339.045C754.049 335.604 757.426 332.097 760.691 328.703L764.826 324.407C783.307 305.199 802.416 285.335 823.17 266.857C846.676 245.929 868.913 229.903 891.149 217.86C905.467 210.135 920.435 204.026 935.636 199.704C949.928 195.64 964.904 193.021 980.149 191.918C1007.43 189.945 1036.28 192.619 1068.35 200.089C1094.17 206.046 1124.51 214.237 1153.81 229.844C1183.15 245.521 1210.15 266.502 1236.26 286.791C1239.91 289.623 1243.67 292.551 1247.36 295.395C1308.94 342.9 1370.92 396.825 1431.56 455.671L1431.42 455.811Z" fill="#94CDFF"/>
<path d="M1429.32 453.973C1369.19 394.479 1308.21 339.883 1248.07 291.702C1243.55 288.081 1238.91 284.316 1234.43 280.676C1209.73 260.611 1184.2 239.863 1156.02 224.988C1126.88 209.663 1096.42 203.134 1070.46 198.769C1003.67 187.369 948.165 195.524 895.795 224.43C850.093 249.763 812.57 285.665 776.28 320.384C772.462 324.038 768.513 327.815 764.664 331.474C760.146 335.772 756.694 339.038 753.473 342.059C736.22 358.232 715.679 376.854 694.123 392.344C671.28 408.757 649.546 420.117 627.68 427.073C616.182 430.731 604.496 433.038 592.946 433.928C580.545 434.884 568.537 434.182 557.26 431.837C545.041 429.298 533.718 424.83 523.601 418.559C512.63 411.759 502.994 402.773 494.959 391.854C494.235 390.865 493.509 389.842 492.805 388.815C480.481 370.874 472.562 350.311 464.902 330.426C463.125 325.814 461.288 321.046 459.436 316.414C449.406 291.276 438.302 269.558 425.486 250.015C423.875 247.557 422.205 245.092 420.524 242.686C389.865 198.803 348.076 162.141 299.676 136.662C242.857 106.854 183.054 93.9738 131.28 100.391C101.821 104.123 63.3453 121.315 43.7949 151.307C32.1713 169.139 29.3817 189.04 35.7308 208.857L35.5417 208.915C32.221 198.553 31.3535 188.196 32.9611 178.133C34.4454 168.844 38.0328 159.784 43.6277 151.201C52.2748 137.937 65.5817 126.023 82.1138 116.744C97.4303 108.148 114.882 102.273 131.257 100.198C158.429 96.8293 187.656 98.7089 218.125 105.786C245.652 112.18 273.122 122.51 299.769 136.49C348.198 161.983 390.011 198.666 420.687 242.574C422.368 244.981 424.04 247.45 425.651 249.909C438.473 269.463 449.583 291.192 459.619 316.342C461.473 320.975 463.31 325.744 465.087 330.356C472.741 350.231 480.658 370.782 492.968 388.704C493.672 389.729 494.396 390.749 495.121 391.737C523.977 430.957 573.509 444.097 627.618 426.884C676.62 411.296 716.592 376.361 753.335 341.915C756.557 338.893 760.007 335.628 764.525 331.33C768.373 327.67 772.323 323.893 776.141 320.24C794.006 303.147 812.478 285.474 832.182 268.924C854.462 250.208 875.24 235.597 895.7 224.256C909.88 216.43 924.63 210.033 939.542 205.248C953.667 200.713 968.406 197.475 983.351 195.619C1010.56 192.243 1039.07 193.209 1070.49 198.572C1096.46 202.941 1126.95 209.471 1156.12 224.811C1184.31 239.695 1209.85 260.449 1234.56 280.52C1239.04 284.16 1243.67 287.925 1248.19 291.546C1308.34 339.732 1369.33 394.333 1429.46 453.831L1429.32 453.973Z" fill="#94CDFF"/>
<path d="M1427.2 452.134C1367.61 391.983 1307.61 336.709 1248.89 287.853C1243.9 283.697 1238.77 279.335 1233.81 275.117C1210.17 255.025 1185.73 234.25 1158.33 219.957C1129.17 204.814 1098.63 199.983 1072.61 197.255C1008.84 190.39 952.494 201.371 900.341 230.824C858.815 254.383 823.218 285.899 788.792 316.379C781.839 322.535 774.65 328.902 767.66 334.97C763.384 338.684 759.596 341.946 756.074 344.94C739.697 358.849 717.913 376.683 694.633 391.257C671.243 405.899 649.12 415.61 627.001 420.94C602.876 426.755 578.799 426.798 557.374 421.067C545.462 417.88 534.408 412.91 524.517 406.296C513.839 399.154 504.408 390.012 496.483 379.126C495.764 378.135 495.044 377.11 494.344 376.083C482.195 358.279 474.029 338.054 466.134 318.497C464.224 313.765 462.251 308.874 460.259 304.121C449.789 279.05 438.42 257.508 425.501 238.267C423.866 235.831 422.173 233.387 420.468 231.002C389.389 187.515 347.276 151.348 298.68 126.413C241.469 97.1651 181.499 84.9564 129.815 92.0318C94.7892 96.9308 59.8169 117.503 42.7933 143.22C30.9468 161.117 27.7454 181.121 33.5354 201.071L33.3444 201.123C30.3181 190.699 29.7013 180.288 31.5099 170.181C33.1812 160.84 36.9218 151.732 42.6262 143.113C51.3648 129.911 64.6199 118.024 80.959 108.737C96.1143 100.124 113.456 94.1202 129.787 91.8366C156.928 88.1203 186.186 89.6544 216.75 96.3941C244.344 102.48 271.941 112.52 298.772 126.238C347.395 151.188 389.532 187.375 420.631 230.889C422.336 233.274 424.029 235.72 425.667 238.157C438.591 257.41 449.966 278.962 460.442 304.045C462.434 308.798 464.407 313.691 466.317 318.422C474.208 337.97 482.37 358.185 494.507 375.972C495.207 376.999 495.926 378.02 496.644 379.011C525.005 417.977 573.718 433.58 626.953 420.751C675.485 409.054 717.63 377.331 755.943 344.794C759.463 341.799 763.253 338.54 767.527 334.826C774.515 328.757 781.705 322.392 788.657 316.236C823.09 285.751 858.693 254.227 900.24 230.658C914.294 222.72 928.829 216.039 943.439 210.797C957.413 205.784 971.915 201.926 986.543 199.328C1013.75 194.497 1041.91 193.757 1072.62 197.064C1098.67 199.794 1129.23 204.627 1158.42 219.787C1185.84 234.09 1210.29 254.873 1233.94 274.973C1238.9 279.191 1244.03 283.551 1249.02 287.706C1307.75 336.567 1367.75 391.844 1427.35 452L1427.2 452.134Z" fill="#94CDFF"/>
<path d="M1425.1 450.296C1366.03 389.481 1307.02 333.533 1249.72 284.006C1244.46 279.454 1239.04 274.635 1233.81 269.974C1211.03 249.712 1187.48 228.759 1160.63 214.927C1131.35 199.913 1100.79 196.804 1074.76 195.742C1013.4 193.056 957.837 206.624 904.888 237.22C867.755 258.78 834.653 286.067 802.639 312.454C791.632 321.528 781.234 330.098 770.659 338.466C766.357 341.872 762.44 344.932 758.679 347.819C734.415 366.43 714.228 379.886 695.147 390.164C671.21 403.06 648.699 411.121 626.327 414.806C617.648 416.234 609.001 416.947 600.511 416.947C585.461 416.947 570.899 414.714 557.492 410.291C533.23 402.287 513.218 387.517 498.011 366.393C497.295 365.391 496.581 364.367 495.888 363.344C483.924 345.693 475.53 325.828 467.412 306.614C465.355 301.746 463.23 296.714 461.087 291.821C450.17 266.808 438.534 245.445 425.522 226.511C423.862 224.096 422.145 221.674 420.416 219.31C388.918 176.22 346.478 140.548 297.688 116.154C240.085 87.4684 179.949 75.9292 128.355 83.6623C93.184 89.0435 59.2204 109.225 41.8327 135.079C29.7455 153.05 26.1203 173.173 31.3452 193.275L31.1522 193.324C28.4243 182.827 28.0622 172.353 30.0777 162.194C31.944 152.79 35.8418 143.632 41.6675 134.972C50.4977 121.842 63.6951 109.994 79.8353 100.708C94.8274 92.0805 112.048 85.9596 128.325 83.4691C155.435 79.4054 184.724 80.5921 215.379 86.996C243.042 92.7754 270.764 102.527 297.779 115.979C346.598 140.388 389.061 176.079 420.579 219.195C422.308 221.561 424.026 223.983 425.687 226.4C438.707 245.344 450.349 266.718 461.27 291.741C463.413 296.634 465.54 301.668 467.595 306.536C475.709 325.74 484.099 345.598 496.053 363.233C496.746 364.253 497.458 365.278 498.174 366.277C526.571 405.728 573.268 423.345 626.293 414.61C676.769 406.296 721.477 376.103 758.556 347.663C762.314 344.776 766.232 341.718 770.534 338.312C781.107 329.944 791.505 321.376 802.512 312.301C834.529 285.909 867.639 258.618 904.786 237.051C918.736 228.99 933.053 222.022 947.343 216.338C961.183 210.834 975.449 206.354 989.743 203.026C1017 196.681 1044.82 194.233 1074.76 195.545C1100.82 196.607 1131.41 199.72 1160.72 214.751C1187.6 228.593 1211.16 249.556 1233.94 269.826C1239.18 274.487 1244.59 279.306 1249.85 283.856C1307.16 333.387 1366.16 389.34 1425.24 450.159L1425.1 450.296Z" fill="#94CDFF"/>
<path d="M1422.99 448.457C1363.63 386.108 1307.22 331.057 1250.55 280.157C1245.15 275.301 1239.82 270.341 1234.19 265.091C1212.16 244.565 1189.37 223.343 1162.94 209.897C1133.29 194.889 1101.39 193.64 1076.91 194.23C1018.35 195.455 963.565 211.611 909.434 243.619C876.957 262.916 846.971 286.09 817.971 308.503C802.731 320.283 788.335 331.406 773.656 341.964C769.298 345.1 765.249 347.958 761.282 350.7C736.688 367.673 715.836 379.864 695.657 389.069C671.164 400.241 648.265 406.653 625.65 408.671C614.031 409.708 602.491 409.512 591.351 408.092C579.556 406.587 568.203 403.7 557.608 399.513C534.124 390.232 514.587 374.807 499.54 353.663C498.829 352.66 498.121 351.633 497.432 350.61C485.67 333.141 477.064 313.654 468.741 294.809C466.521 289.781 464.225 284.582 461.915 279.527C450.54 254.568 438.642 233.383 425.54 214.761C423.855 212.368 422.114 209.967 420.365 207.625C388.447 164.931 345.683 129.755 296.697 105.902C251.484 83.9767 204.858 72.537 162.102 72.537C150.015 72.537 138.246 73.4505 126.895 75.2988C92.1476 81.0684 58.3969 101.323 40.9078 126.899C28.5639 144.954 24.499 165.214 29.1528 185.487L28.9578 185.53C26.5284 174.951 26.427 164.406 28.6554 154.188C30.7207 144.716 34.7875 135.497 40.7406 126.79C49.6623 113.742 62.798 101.943 78.7313 92.6662C93.7712 83.9084 110.415 77.8362 126.859 75.1076C153.937 70.6964 183.258 71.5377 214.007 77.604C241.735 83.073 269.586 92.5335 296.785 105.724C345.798 129.591 388.588 164.786 420.526 207.506C422.277 209.848 424.02 212.251 425.705 214.646C438.813 233.278 450.717 254.473 462.098 279.443C464.408 284.498 466.706 289.697 468.926 294.727C477.245 313.564 485.847 333.044 497.6 350.499C498.288 351.52 498.996 352.546 499.705 353.548C527.844 393.086 573.742 413.104 625.635 408.474C678.144 403.788 725.649 375.049 761.171 350.536C765.138 347.794 769.185 344.936 773.542 341.802C788.22 331.248 802.613 320.123 817.852 308.345C846.855 285.93 876.846 262.751 909.335 243.447C937.204 226.968 964.552 214.958 992.945 206.729C1020.33 198.793 1047.79 194.64 1076.91 194.031C1093.52 193.63 1107.07 194.325 1119.55 196.215C1135.68 198.654 1149.9 203.071 1163.03 209.719C1189.49 223.177 1212.29 244.411 1234.33 264.946C1239.96 270.197 1245.29 275.154 1250.69 280.011C1307.36 330.912 1363.77 385.968 1423.13 448.321L1422.99 448.457Z" fill="#94CDFF"/>
<path d="M1420.88 446.619C1362.06 383.586 1306.61 327.879 1251.38 276.308C1245.92 271.206 1240.53 265.949 1234.83 260.385C1213.45 239.535 1191.35 217.973 1165.24 204.865C1135.34 189.928 1103.48 190.525 1079.06 192.713C1023.79 197.493 969.797 216.236 913.981 250.011C886.479 266.732 860.295 285.868 834.973 304.375C814.955 319.004 796.049 332.823 776.654 345.453C772.271 348.311 767.973 351.043 763.884 353.573C739.242 368.805 717.091 380.053 696.166 387.962C671.11 397.432 647.823 402.199 624.974 402.531C613.348 402.698 601.854 401.668 590.817 399.464C579.247 397.153 568.113 393.54 557.723 388.723C535.045 378.209 515.982 362.128 501.065 340.925C500.365 339.924 499.661 338.895 498.974 337.867C487.432 320.61 478.64 301.535 470.136 283.088C467.73 277.869 465.241 272.47 462.74 267.222C450.9 242.311 438.737 221.305 425.558 203.001C423.848 200.63 422.084 198.25 420.311 195.929C387.973 153.631 344.883 118.951 295.702 95.6386C237.317 68.0788 176.845 57.8825 125.431 66.9272C91.1327 73.0657 57.6068 93.3726 40.0202 118.659C27.3977 136.809 22.8812 157.221 26.956 177.692L26.761 177.729C24.6361 167.058 24.7992 156.43 27.2485 146.142C29.5227 136.592 33.7627 127.307 39.855 118.547C48.8642 105.593 61.9343 93.8527 77.6527 84.5952C92.5195 75.8393 109.028 69.6637 125.395 66.734C152.442 61.9774 181.794 62.4693 212.634 68.1998C240.429 73.3644 268.406 82.536 295.788 95.461C344.998 118.785 388.112 153.487 420.468 195.81C422.243 198.131 424.01 200.512 425.719 202.886C438.906 221.2 451.073 242.215 462.919 267.136C465.422 272.385 467.91 277.783 470.317 283.005C478.817 301.443 487.605 320.511 499.139 337.755C499.826 338.782 500.53 339.811 501.228 340.81C529.665 381.228 573.611 403.081 624.97 402.332C666.643 401.726 710.75 386.178 763.777 353.403C767.863 350.874 772.159 348.143 776.542 345.285C795.932 332.657 814.837 318.842 834.852 304.213C860.178 285.704 886.366 266.564 913.875 249.839C942.017 232.809 968.925 219.919 996.138 210.428C1023.71 200.813 1050.82 194.952 1079.04 192.512C1103.49 190.32 1135.39 189.725 1165.33 204.685C1191.47 217.81 1213.58 239.381 1234.97 260.24C1240.67 265.805 1246.06 271.059 1251.52 276.159C1306.76 327.733 1362.2 383.444 1421.02 446.48L1420.88 446.619Z" fill="#94CDFF"/>
<path d="M1418.77 444.78C1360.5 381.062 1306.02 324.696 1252.21 272.461C1246.75 267.158 1241.36 261.648 1235.65 255.814C1214.88 234.591 1193.4 212.647 1167.55 199.835C1137.37 184.952 1105.55 187.402 1081.21 191.198C1029.21 199.152 977.522 219.873 918.529 256.407C896.403 270.171 874.782 285.271 853.872 299.872C828.476 317.606 804.489 334.359 779.652 348.949C775.177 351.58 770.748 354.106 766.488 356.452C741.404 370.259 718.569 380.206 696.677 386.857C684.415 390.583 672.309 393.283 660.698 394.881C648.312 396.585 636.066 397.095 624.299 396.396C600.425 394.977 578.065 388.766 557.842 377.938C536.001 366.242 517.414 349.507 502.597 328.193C501.901 327.184 501.202 326.154 500.52 325.131C489.224 308.128 480.275 289.506 471.622 271.498C469.001 266.047 466.294 260.41 463.57 254.925C451.252 230.055 438.824 209.227 425.577 191.249C423.844 188.897 422.053 186.539 420.259 184.242C387.501 142.338 344.086 108.154 294.711 85.3857C235.936 58.39 175.299 48.865 123.97 58.5637C69.0091 69.1094 15.4533 114.675 24.765 169.902L24.568 169.933C22.2381 156.118 23.603 142.508 28.6229 129.478C33.2071 117.577 40.73 106.378 50.9828 96.193C60.5153 86.7227 71.9519 78.5465 84.9722 71.8908C97.3559 65.561 110.828 60.8844 123.93 58.3704C150.946 53.2664 180.329 53.4128 211.262 58.8076C239.126 63.6657 267.23 72.5485 294.794 85.21C344.198 107.994 387.638 142.198 420.416 184.125C422.212 186.424 424.003 188.782 425.738 191.136C438.991 209.122 451.425 229.962 463.749 254.842C466.473 260.326 469.181 265.963 471.801 271.416C480.452 289.418 489.398 308.033 500.687 325.025C501.367 326.048 502.064 327.079 502.76 328.086C531.238 369.047 574.406 393.236 624.311 396.203C666.559 398.711 713.034 385.655 766.391 356.284C770.649 353.938 775.076 351.414 779.55 348.783C804.381 334.197 828.365 317.446 853.757 299.714C874.668 285.111 896.292 270.009 918.421 256.243C977.438 219.693 1029.15 198.965 1081.18 191.005C1097.54 188.454 1111.08 187.638 1123.8 188.44C1140.07 189.465 1154.41 193.134 1167.63 199.659C1193.52 212.485 1215.01 234.443 1235.79 255.677C1241.5 261.509 1246.89 267.019 1252.35 272.32C1306.16 324.559 1360.64 380.928 1418.91 444.649L1418.77 444.78Z" fill="#94CDFF"/>
<path d="M1416.66 442.941C1358.94 378.529 1305.42 321.506 1253.04 268.612C1247.62 263.139 1242.27 257.406 1236.6 251.334C1216.39 229.706 1195.5 207.34 1169.85 194.803C1139.02 179.796 1105.72 184.693 1083.36 189.682C1022.67 203.055 968.277 234.148 923.077 262.803C906.832 273.144 890.628 284.097 874.955 294.69C843.517 315.94 813.823 336.01 782.653 352.445C778.068 354.863 773.508 357.18 769.095 359.333C743.522 371.783 720.002 380.426 697.193 385.751C671.335 391.788 646.585 393.306 623.627 390.261C600.041 387.132 577.948 379.356 557.964 367.148C537.003 354.344 518.891 336.955 504.127 315.463C503.439 314.454 502.745 313.422 502.066 312.395C491.051 295.705 481.99 277.594 473.226 260.078C470.355 254.338 467.384 248.404 464.4 242.629C451.417 217.446 439.087 197.387 425.599 179.497C423.842 177.166 422.03 174.832 420.209 172.554C387.028 131.049 343.287 97.36 293.716 75.1307C234.552 48.7009 173.747 39.8455 122.506 50.198C67.3481 61.4893 14.8866 106.436 22.5707 162.112L22.3738 162.137C20.4677 148.324 22.1171 134.728 27.2743 121.727C32.0017 109.815 39.5684 98.6034 49.7675 88.407C59.278 78.8977 70.655 70.661 83.5838 63.9213C95.8939 57.5037 109.34 52.6924 122.466 50.0048C149.452 44.5533 178.865 44.3542 209.89 49.4114C237.821 53.9631 266.052 62.557 293.8 74.953C343.4 97.1941 387.165 130.902 420.362 172.433C422.183 174.713 423.998 177.049 425.756 179.38C439.252 197.278 451.586 217.349 464.575 242.541C467.559 248.316 470.53 254.252 473.401 259.992C482.164 277.502 491.222 295.607 502.229 312.29C502.908 313.316 503.6 314.347 504.289 315.356C532.988 357.133 575.377 383.666 623.651 390.068C666.946 395.81 714.491 385.698 769.006 359.157C773.417 357.006 777.977 354.691 782.557 352.273C813.719 335.842 843.409 315.776 874.842 294.528C890.514 283.935 906.72 272.98 922.968 262.637C953.362 243.37 978.647 229.136 1002.53 217.841C1030.66 204.545 1057.08 195.272 1083.32 189.49C1099.31 185.922 1113.25 184.306 1125.93 184.552C1142.26 184.868 1156.66 188.163 1169.94 194.627C1195.62 207.18 1216.53 229.559 1236.74 251.201C1242.41 257.271 1247.77 263.004 1253.18 268.473C1305.57 321.37 1359.09 378.396 1416.81 442.81L1416.66 442.941Z" fill="#94CDFF"/>
<path d="M1414.55 441.101C1357.39 375.992 1304.83 318.311 1253.87 264.761C1248.53 259.145 1243.24 253.214 1237.64 246.933C1217.97 224.869 1197.63 202.054 1172.16 189.772C1140.99 174.799 1107.78 181.683 1085.51 188.165C1030.52 204.035 981.474 234.254 927.626 269.197C917.914 275.523 908.091 282.052 898.591 288.368C862.052 312.657 824.273 337.771 785.651 355.939C780.96 358.148 776.264 360.258 771.698 362.21C745.951 373.202 721.057 380.748 697.704 384.638C671.25 389.045 646.1 388.872 622.948 384.125C599.693 379.357 577.869 370.013 558.079 356.354C538.053 342.531 520.413 324.491 505.65 302.734C504.967 301.723 504.279 300.688 503.604 299.661C492.922 283.362 483.803 265.84 474.985 248.896C471.807 242.791 468.522 236.479 465.222 230.336C451.732 205.179 439.145 185.292 425.611 167.749C423.835 165.446 421.996 163.131 420.15 160.871C386.554 119.756 342.491 86.5627 292.722 64.8759C233.169 39.0123 172.2 30.8282 121.041 41.8327C67.6348 53.446 14.2043 96.8157 20.3743 154.32L20.1773 154.34C18.695 140.527 20.6289 126.946 25.9234 113.974C30.7921 102.049 38.4046 90.8274 48.5479 80.6194C67.2627 61.7881 93.6696 47.5808 120.998 41.6394C147.952 35.8425 177.397 35.296 208.515 40.0155C236.514 44.2627 264.87 52.5658 292.801 64.6964C342.599 86.3949 386.688 119.609 420.305 160.744C422.153 163.006 423.992 165.321 425.771 167.626C439.31 185.179 451.903 205.074 465.397 230.241C468.698 236.385 471.984 242.697 475.162 248.803C483.978 265.743 493.095 283.26 503.771 299.552C504.444 300.579 505.132 301.611 505.815 302.622C535.351 346.152 575.869 374.268 622.986 383.932C666.616 392.879 716.62 385.511 771.614 362.03C776.178 360.078 780.87 357.97 785.56 355.763C824.167 337.601 861.943 312.491 898.473 288.206C907.974 281.89 917.797 275.361 927.51 269.035C951.082 253.739 978.51 236.194 1005.73 221.545C1034.2 206.223 1060.28 195.244 1085.45 187.98C1101.3 183.368 1115.24 180.975 1128.06 180.666C1144.23 180.276 1159.09 183.282 1172.24 189.598C1183.65 195.1 1195.13 203.311 1207.35 214.702C1218.13 224.76 1228.12 235.967 1237.79 246.804C1243.38 253.083 1248.67 259.015 1254.01 264.628C1304.98 318.18 1357.53 375.863 1414.7 440.974L1414.55 441.101Z" fill="#94CDFF"/>
<path d="M1412.44 439.261C1355.84 373.45 1304.24 315.112 1254.7 260.913C1249.45 255.175 1244.26 249.064 1238.76 242.595C1219.6 220.073 1199.79 196.784 1174.46 184.743C1150.79 173.526 1122.4 174.15 1087.66 186.652C1039.09 204.033 995.672 233.105 949.703 263.888C943.979 267.721 938.062 271.683 932.172 275.597C929.866 277.133 927.558 278.673 925.252 280.211C881.452 309.428 836.161 339.64 788.65 359.436C783.847 361.438 779.02 363.341 774.302 365.09C747.991 374.836 722.394 381.038 698.223 383.525C671.158 386.308 645.605 384.446 622.278 377.99C599.385 371.652 577.829 360.741 558.209 345.56C539.191 330.845 522.025 312.154 507.184 290.003C506.507 288.99 505.825 287.954 505.154 286.925C494.878 271.137 485.789 254.322 476.996 238.061C473.437 231.476 469.754 224.666 466.055 218.037C452.044 192.898 439.203 173.182 425.637 155.995C423.835 153.711 421.974 151.419 420.104 149.181C386.083 108.464 341.693 75.7646 291.729 54.6204C231.79 29.3247 170.652 21.8102 119.579 33.4665C67.1532 45.5308 13.7983 89.2556 18.1816 146.53L17.9826 146.546C16.9261 132.731 19.1426 119.165 24.5743 106.227C29.5863 94.2874 37.2425 83.0527 47.3321 72.8368C65.9673 53.9666 92.2827 39.5484 119.533 33.2772C146.457 27.1328 175.932 26.2389 207.142 30.6227C235.208 34.5615 263.694 42.5757 291.808 54.4409C341.801 75.5987 386.218 108.315 420.253 149.054C422.123 151.293 423.988 153.588 425.79 155.872C439.362 173.069 452.211 192.79 466.226 217.94C469.927 224.568 473.608 231.38 477.17 237.965C485.958 254.222 495.047 271.033 505.319 286.816C505.99 287.844 506.67 288.879 507.347 289.892C537.524 334.932 577.284 365.328 622.33 377.796C666.797 390.105 717.903 385.766 774.231 364.903C778.944 363.154 783.769 361.253 788.57 359.252C836.065 339.464 881.348 309.258 925.139 280.045C927.447 278.505 929.753 276.967 932.059 275.431C937.948 271.517 943.865 267.555 949.59 263.724C995.569 232.936 1039 203.855 1087.59 186.466C1103.29 180.818 1117.22 177.65 1130.19 176.778C1146.42 175.687 1161.34 178.308 1174.55 184.565C1185.89 189.958 1197.23 198.207 1209.22 209.783C1219.79 219.997 1229.51 231.421 1238.91 242.468C1244.41 248.935 1249.61 255.044 1254.85 260.78C1304.39 314.981 1355.99 373.321 1412.59 439.135L1412.44 439.261Z" fill="#94CDFF"/>
<path d="M1410.33 437.424C1358.67 376.097 1306.59 315.415 1255.53 257.065C1250.33 251.159 1245.18 244.813 1239.73 238.097C1221.99 216.248 1201.88 191.485 1176.77 179.714C1152.82 168.516 1124.38 170.29 1089.81 185.136C1048.71 202.73 1012.34 228.599 973.826 255.987C961.766 264.564 949.295 273.435 936.717 281.992C914.761 296.96 891.01 312.799 866.113 327.225C839.45 342.676 815.09 354.354 791.642 362.93C786.716 364.732 781.758 366.428 776.901 367.968C750.032 376.484 723.739 381.33 698.751 382.372C671.088 383.524 645.131 379.987 621.597 371.852C578.139 356.643 540.156 324.823 508.706 277.272C508.035 276.257 507.359 275.219 506.692 274.19C496.937 259.099 488.007 243.177 479.372 227.779C475.307 220.532 471.105 213.037 466.877 205.743C452.333 180.61 439.233 161.068 425.651 144.245C423.823 141.981 421.939 139.711 420.046 137.496C385.611 97.1709 340.895 64.9696 290.736 44.3661C230.409 19.6364 169.106 12.7952 118.117 25.1015C65.3726 37.9036 13.3548 81.0488 15.9871 138.741L15.7882 138.749C15.1574 124.93 17.6604 111.38 23.2255 98.4747C28.3827 86.5197 36.0827 75.2733 46.1146 65.0496C55.5655 55.4173 66.7673 46.9952 79.4077 40.0154C91.6799 33.2406 104.686 28.1581 118.067 24.9102C144.961 18.4204 174.468 17.179 205.769 21.2252C233.903 24.8614 262.515 32.5848 290.812 44.1845C341.001 64.7998 385.742 97.0206 420.198 137.365C422.09 139.582 423.978 141.854 425.806 144.118C439.394 160.951 452.5 180.5 467.05 205.642C471.278 212.938 475.48 220.433 479.545 227.682C488.18 243.078 497.108 258.997 506.859 274.083C507.524 275.113 508.202 276.15 508.871 277.165C540.298 324.678 578.247 356.473 621.663 371.666C666.385 387.125 720.044 385.782 776.839 367.78C781.692 366.24 786.65 364.546 791.573 362.747C843.998 343.574 891.965 312.261 936.601 281.83C949.18 273.273 961.649 264.404 973.708 255.827C1012.23 228.433 1048.61 202.558 1089.73 184.956C1124.35 170.087 1152.85 168.313 1176.85 179.536C1188.1 184.808 1199.27 193.072 1211 204.797C1221.34 215.136 1230.77 226.747 1239.88 237.974C1245.34 244.69 1250.48 251.034 1255.68 256.936C1306.74 315.288 1358.82 375.97 1410.48 437.299L1410.33 437.424Z" fill="#94CDFF"/>
<path d="M1408.22 435.585C1357.35 373.919 1306.26 312.561 1256.36 253.216C1251.32 247.245 1246.33 240.789 1241.04 233.953C1223.74 211.595 1204.12 186.253 1179.07 174.68C1154.84 163.502 1126.35 166.426 1091.96 183.616C1055.93 201.6 1022.83 226.993 990.823 251.553C974.773 263.867 958.175 276.601 941.263 288.384C914.569 307 892.11 321.202 870.58 333.079C844.032 347.723 819.191 358.63 794.64 366.422C789.6 368.022 784.507 369.51 779.503 370.843C753.43 377.786 727.827 381.299 703.335 381.301C701.974 381.301 700.621 381.289 699.268 381.268C670.951 380.815 644.592 375.58 620.923 365.711C609.498 360.922 598.31 354.842 587.671 347.639C577.671 340.871 567.844 332.897 558.463 323.942C541.585 307.832 525.807 288.4 510.232 264.538C509.563 263.512 508.897 262.483 508.234 261.451C499.197 247.372 490.647 232.655 482.38 218.423C477.607 210.207 472.673 201.711 467.703 193.441C452.4 167.962 439.437 149.162 425.667 132.487C423.814 130.245 421.906 127.996 419.99 125.802C385.137 85.8778 340.097 54.1723 289.743 34.1094C229.03 9.94773 167.56 3.778 116.654 16.7342C64.8988 29.9442 12.9487 73.4173 13.7943 130.947L13.5953 130.949C13.2014 104.153 24.0271 78.6716 44.9007 57.262C54.3357 47.5848 65.4778 39.1022 78.0207 32.0444C90.2253 25.1778 103.206 19.9626 116.604 16.543C143.467 9.7057 173.005 8.11886 204.398 11.8273C232.6 15.1591 261.338 22.5936 289.817 33.9259C340.203 54.0025 385.269 85.7275 420.144 125.676C422.06 127.871 423.972 130.122 425.824 132.364C439.6 149.049 452.569 167.855 467.876 193.344C472.846 201.615 477.782 210.112 482.553 218.327C490.82 232.558 499.368 247.273 508.403 261.347C509.066 262.38 509.73 263.408 510.399 264.433C543.495 315.138 579.673 348.207 621 365.532C678.241 389.399 738.761 381.492 779.451 370.655C784.451 369.322 789.541 367.837 794.579 366.237C851.043 348.315 902.568 315.132 941.147 288.226C958.057 276.447 974.653 263.713 990.702 251.401C1022.72 226.837 1055.83 201.436 1091.87 183.444C1107.26 175.752 1121.18 171.028 1134.44 169.006C1150.79 166.512 1165.84 168.362 1179.15 174.506C1190.37 179.689 1201.44 188.019 1212.97 199.972C1223.14 210.504 1232.32 222.365 1241.2 233.838C1246.49 240.671 1251.48 247.126 1256.51 253.093C1306.41 312.438 1357.5 373.796 1408.37 435.462L1408.22 435.585Z" fill="#94CDFF"/>
<path d="M1406.11 433.746L1257.19 249.369C1252.33 243.347 1247.5 236.795 1242.38 229.86C1225.51 206.973 1206.38 181.033 1181.38 169.652C1157.19 158.648 1127.83 162.836 1094.11 182.103C1061.69 200.624 1032.12 225.254 1003.53 249.074C984.888 264.601 965.614 280.654 945.811 294.784C886.29 337.252 834.272 362.335 782.109 373.724C760.47 378.447 739.122 380.824 718.42 380.824C712.145 380.824 705.933 380.606 699.787 380.168C670.801 378.107 644.04 371.178 620.25 359.577C598.2 348.822 578.029 333.641 558.59 313.162C543.067 296.81 528.186 277.315 511.761 251.81C503.092 238.35 494.698 224.366 486.58 210.841C468.208 180.237 449.21 148.59 425.69 120.737C389.614 78.0175 342.26 44.5163 288.748 23.8542C227.651 0.262435 166.013 -5.23782 115.191 8.36838C65.9869 21.5413 12.5823 63.0801 11.5994 123.157L11.4004 123.154C11.8401 96.3002 23.0041 70.823 43.6847 49.4759C62.3836 30.1742 87.7598 15.5082 115.14 8.17906C141.972 0.996324 171.543 -0.93794 203.025 2.43287C231.294 5.4582 260.16 12.6058 288.821 23.6727C315.3 33.8964 340.447 47.3542 363.567 63.6735C386.88 80.1293 407.833 99.2846 425.842 120.608C449.371 148.471 468.375 180.125 486.751 210.738C494.869 224.26 503.264 238.243 511.93 251.701C535.894 288.915 569.874 334.784 620.339 359.397C678.215 387.622 740.231 382.661 782.065 373.528C834.203 362.147 886.196 337.074 945.693 294.622C965.489 280.498 984.76 264.444 1003.4 248.922C1032 225.098 1061.58 200.462 1094.01 181.931C1127.79 162.631 1157.21 158.439 1181.46 169.472C1192.65 174.569 1203.62 182.971 1214.97 195.164C1224.96 205.897 1233.9 218.02 1242.54 229.743C1247.66 236.678 1252.49 243.226 1257.35 249.246L1406.27 433.623L1406.11 433.746Z" fill="#94CDFF"/>
<path d="M1404.91 419.572C1366.99 368.235 1334.45 326.577 1302.52 288.475C1287.02 269.966 1271.19 251.748 1255.46 234.326C1250.71 229.056 1246 223.45 1241.01 217.514C1228.47 202.597 1215.51 187.171 1200.59 175.724C1192.59 169.566 1184.88 165.157 1177.02 162.244C1152.92 153.217 1124.65 159.186 1092.98 179.987C1076.59 190.735 1061.67 202.967 1049.23 213.515C1036.07 224.682 1023.08 236.996 1010.52 248.904C992.469 266.021 973.802 283.72 953.734 298.921C941.523 308.198 929.146 316.488 916.943 323.561C892.53 337.712 866.326 349.372 839.06 358.218C822.213 363.622 805.285 367.708 788.749 370.358C774.497 372.634 760.219 373.948 746.309 374.262C725.491 374.734 705.209 372.933 686.024 368.902C665.626 364.616 646.323 357.775 628.65 348.566C612.892 340.355 598.008 330.016 583.147 316.956C555.455 292.64 533.367 264.524 517.219 242.746C509.286 231.997 501.541 221.036 494.05 210.435C472.48 179.907 452.105 151.072 426.61 125.388C405.816 104.578 382.091 86.6189 356.088 72.0075C336.106 60.7786 314.373 51.5953 291.494 44.7112C286.044 43.0736 280.491 41.5473 274.993 40.179C251.324 34.2982 224.679 30.4687 195.799 28.796C166.682 27.0706 141.491 28.5637 118.791 33.3652C105.957 36.0587 93.524 40.2844 81.8308 45.9233C40.5492 65.8319 14.0409 99.2531 10.9211 135.327L10.6724 135.305C11.504 125.689 13.9454 116.216 17.9267 107.148C21.7091 98.5348 26.9041 90.2278 33.3665 82.4576C45.5771 67.7799 62.2982 55.0695 81.7213 45.7027C93.4325 40.0541 105.886 35.8226 118.739 33.1251C141.463 28.3197 166.674 26.8246 195.815 28.552C224.711 30.2247 251.37 34.0581 275.055 39.9429C280.559 41.3131 286.114 42.8394 291.567 44.4789C314.464 51.3669 336.215 60.5581 356.214 71.7967C382.234 86.4179 405.979 104.392 426.783 125.216C452.295 150.916 472.673 179.758 494.251 210.295C501.74 220.895 509.485 231.855 517.416 242.601C533.556 264.37 555.634 292.472 583.31 316.773C598.155 329.819 613.024 340.148 628.764 348.349C663.35 366.371 702.895 375.008 746.301 374.018C760.199 373.704 774.467 372.39 788.707 370.116C805.231 367.466 822.147 363.384 838.98 357.984C866.23 349.144 892.418 337.491 916.816 323.348C929.01 316.281 941.38 307.995 953.581 298.726C973.637 283.533 992.3 265.838 1010.35 248.726C1022.91 236.816 1035.9 224.498 1049.07 213.328C1061.51 202.774 1076.44 190.538 1092.84 179.782C1106.94 170.52 1120.59 164.122 1133.42 160.763C1149.17 156.637 1163.88 157.058 1177.11 162.016C1184.99 164.938 1192.72 169.359 1200.75 175.531C1215.69 186.996 1228.66 202.431 1241.2 217.358C1246.19 223.292 1250.9 228.897 1255.65 234.163C1271.38 251.587 1287.21 269.808 1302.71 288.321C1334.65 326.426 1367.19 368.088 1405.11 419.429L1404.91 419.572Z" fill="#94CDFF"/>
<path d="M1403.71 405.394C1368.55 353.188 1335.55 309.502 1302.83 271.842C1286.87 253.446 1270.35 235.762 1253.74 219.283C1249.33 214.911 1244.98 210.367 1240.37 205.558C1226.57 191.155 1212.3 176.263 1196.32 165.959C1188.25 160.734 1180.51 157.096 1172.67 154.835C1142.65 146.177 1112.15 162.58 1091.85 177.865C1077.47 188.663 1064.33 200.871 1051.03 213.474C1039.38 224.506 1028.42 236.373 1016.82 248.935C999.608 267.583 981.804 286.865 961.657 303.055C949.701 312.715 937.224 321.067 924.572 327.879C901.004 340.57 875.196 350.424 845.673 358.009C829.151 362.252 812.231 365.276 795.383 366.992C781.166 368.422 766.976 368.934 753.204 368.506C732.714 367.878 712.686 365.051 693.673 360.107C673.705 354.914 654.652 347.325 637.045 337.552C621.619 328.991 606.725 318.37 591.51 305.081C563.877 280.982 540.206 254.266 522.673 233.682C516.183 226.062 509.796 218.395 503.618 210.978C479.016 181.443 455.779 153.543 427.529 130.039C406.417 112.473 382.714 97.6195 357.083 85.893C337.69 77.0199 317.135 70.372 294.246 65.5686C288.963 64.4619 283.589 63.4645 278.275 62.6037C254.932 58.8426 230.019 57.4197 199.878 55.948C178.151 54.8335 149.708 54.0996 122.384 58.3585C109.444 60.3377 96.9345 63.7748 85.2014 68.5705C43.892 85.4597 15.8696 114.964 10.2388 147.497L9.94434 147.448C11.4366 138.821 14.4609 130.36 18.9277 122.297C23.1855 114.614 28.7805 107.248 35.5553 100.397C48.4304 87.3822 65.5575 76.2821 85.086 68.2992C96.841 63.4938 109.374 60.0507 122.337 58.0677C149.686 53.8029 178.151 54.5388 199.892 55.6533C230.043 57.1249 254.964 58.5478 278.322 62.311C283.641 63.1737 289.019 64.1711 294.307 65.2777C317.218 70.087 337.793 76.7408 357.209 85.6236C382.865 97.3619 406.588 112.227 427.722 129.811C455.991 153.333 479.239 181.24 503.849 210.787C510.025 218.202 516.412 225.868 522.902 233.486C540.431 254.063 564.092 280.769 591.709 304.857C606.906 318.131 621.784 328.742 637.192 337.292C671.812 356.508 710.85 366.91 753.214 368.209C766.974 368.635 781.151 368.126 795.353 366.695C812.185 364.981 829.091 361.962 845.598 357.72C875.097 350.143 900.883 340.296 924.43 327.617C937.067 320.813 949.528 312.473 961.47 302.823C981.599 286.646 999.395 267.372 1016.61 248.734C1028.21 236.166 1039.17 224.297 1050.82 213.26C1064.13 200.649 1077.27 188.436 1091.67 177.627C1104.83 167.718 1117.81 160.589 1130.25 156.436C1145.34 151.4 1159.64 150.766 1172.76 154.549C1180.63 156.819 1188.39 160.468 1196.48 165.709C1212.49 176.032 1226.78 190.938 1240.59 205.353C1245.19 210.16 1249.55 214.702 1253.95 219.072C1270.57 235.557 1287.09 253.247 1303.06 271.649C1335.79 309.319 1368.8 353.013 1403.96 405.23L1403.71 405.394Z" fill="#94CDFF"/>
<path d="M1402.51 391.216C1369.6 337.433 1337.1 292.945 1303.14 255.211C1286.72 236.928 1269.52 219.781 1252.01 204.243C1248.27 200.921 1244.42 197.395 1240.7 193.988C1225.31 179.907 1209.41 165.348 1192.04 156.196C1183.89 151.871 1176.13 149.002 1168.33 147.427C1138.37 141.378 1109.59 159.487 1090.72 175.742C1077.93 186.715 1066.25 199.152 1054.94 211.181L1052.82 213.434C1042.56 224.346 1032.93 236.315 1022.74 248.988C1006.5 269.168 989.717 290.033 969.579 307.19C957.862 317.246 945.286 325.66 932.198 332.199C909.378 343.599 883.982 351.734 852.281 357.801C835.888 360.937 818.976 362.897 802.012 363.623C787.831 364.207 773.729 363.914 760.091 362.749C718.806 359.237 680.23 347.054 645.435 326.538C630.393 317.669 615.489 306.768 599.872 293.207C573.443 270.306 549.937 246.767 528.128 224.62C525.204 221.651 522.311 218.702 519.44 215.776C489.652 185.427 461.518 156.76 428.454 134.697C406.868 120.292 383.189 108.546 358.078 99.7826C339.641 93.3493 319.661 88.9811 296.999 86.4281C291.892 85.8563 286.697 85.3859 281.557 85.0306C268.628 84.1523 254.916 84.0098 240.397 83.8595C228.736 83.7385 216.678 83.6136 203.954 83.1042C179.38 82.0365 151.529 80.8283 125.973 83.3579C112.788 84.6637 100.203 87.3104 88.5676 91.2257C47.2741 105.123 17.7356 130.713 9.55206 159.68L9.21582 159.589C11.3726 151.951 14.9779 144.501 19.9302 137.445C24.6656 130.698 30.6584 124.268 37.7416 118.337C51.2893 106.993 68.8262 97.5067 88.4522 90.9017C100.114 86.9766 112.724 84.3241 125.936 83.0164C151.517 80.4848 179.382 81.695 203.966 82.7626C216.682 83.2701 228.74 83.397 240.397 83.518C254.922 83.6683 268.638 83.8107 281.579 84.691C286.722 85.0482 291.923 85.5186 297.035 86.0905C319.725 88.6454 339.729 93.0195 358.191 99.4625C383.333 108.236 407.037 119.996 428.647 134.416C461.741 156.499 489.889 185.179 519.688 215.542C522.559 218.467 525.454 221.415 528.377 224.385C550.182 246.529 573.68 270.062 600.101 292.955C615.702 306.501 630.59 317.392 645.614 326.249C680.364 346.74 718.89 358.905 760.121 362.413C773.743 363.576 787.831 363.869 801.996 363.285C818.942 362.559 835.838 360.602 852.213 357.469C883.883 351.409 909.249 343.283 932.038 331.898C945.099 325.373 957.651 316.974 969.349 306.936C989.46 289.801 1006.23 268.948 1022.46 248.779C1032.66 236.1 1042.29 224.126 1052.56 213.205L1054.68 210.953C1065.99 198.918 1077.69 186.473 1090.49 175.488C1109.41 159.181 1138.3 141.019 1168.39 147.095C1176.24 148.678 1184.02 151.557 1192.2 155.9C1209.61 165.071 1225.53 179.646 1240.93 193.742C1244.65 197.15 1248.5 200.675 1252.24 203.995C1269.76 219.541 1286.97 236.698 1303.4 254.99C1337.37 292.74 1369.89 337.244 1402.8 391.044L1402.51 391.216Z" fill="#94CDFF"/>
<path d="M1401.31 377.036C1371.1 322.441 1338.17 275.857 1303.45 238.581C1286.57 220.413 1268.69 203.801 1250.29 189.205C1247.64 187.097 1244.92 184.909 1242.29 182.794C1224.9 168.817 1206.92 154.361 1187.78 146.437C1179.56 143 1171.78 140.902 1163.99 140.019C1134.11 136.639 1107.05 156.424 1089.6 173.618C1078.76 184.24 1068.99 196.052 1059.53 207.477C1057.89 209.454 1056.26 211.427 1054.62 213.393C1045.62 224.19 1037.21 236.252 1028.31 249.021C1013.17 270.729 997.52 293.175 977.504 311.327C965.749 321.986 953.425 330.227 939.824 336.524C911.376 349.693 882.946 354.566 858.889 357.599C842.617 359.649 825.713 360.547 808.642 360.262C794.505 359.998 780.488 358.899 766.982 356.998C726.936 351.375 688.866 337.423 653.83 315.53C639.251 306.423 624.339 295.239 608.237 281.34C591.971 267.333 576.814 253.856 562.154 240.822C552.192 231.962 542.781 223.595 533.59 215.567C498.851 185.22 467.03 158.538 429.387 139.36C407.338 128.127 383.683 119.484 359.079 113.674C341.444 109.508 322.594 107.48 299.759 107.287C294.832 107.252 289.814 107.309 284.846 107.457C277.299 107.697 269.492 108.199 261.229 108.732C245.371 109.752 227.395 110.91 208.031 110.262C200.658 110.014 193.135 109.665 185.858 109.325C167.144 108.452 147.792 107.551 129.561 108.357C116.172 108.95 103.51 110.808 91.9303 113.88C50.7064 124.82 19.6537 146.499 8.86174 171.871L8.49365 171.721C11.319 165.077 15.5052 158.64 20.935 152.587C26.1499 146.775 32.5407 141.284 39.9264 136.27C54.1585 126.608 72.1033 118.737 91.8228 113.504C103.431 110.424 116.121 108.56 129.539 107.966C147.79 107.158 167.15 108.062 185.874 108.935C193.149 109.274 200.671 109.624 208.043 109.871C227.389 110.519 245.351 109.364 261.201 108.343C269.468 107.81 277.278 107.309 284.832 107.069C289.806 106.92 294.828 106.864 299.761 106.899C322.628 107.09 341.506 109.124 359.17 113.295C383.804 119.113 407.491 127.766 429.569 139.014C446.572 147.676 463.803 158.652 482.245 172.564C498.755 185.019 514.816 198.646 533.853 215.276C543.043 223.306 552.454 231.673 562.418 240.533C577.076 253.565 592.234 267.042 608.495 281.047C624.582 294.932 639.478 306.104 654.039 315.202C689.027 337.066 727.043 350.998 767.034 356.614C780.524 358.513 794.523 359.61 808.644 359.873C825.695 360.158 842.581 359.262 858.833 357.213C882.86 354.186 911.253 349.318 939.651 336.172C953.215 329.893 965.507 321.674 977.23 311.043C997.212 292.922 1012.85 270.493 1027.98 248.803C1036.89 236.026 1045.3 223.958 1054.31 213.149C1055.94 211.183 1057.58 209.21 1059.21 207.234C1068.68 195.803 1078.46 183.982 1089.31 173.347C1100.66 162.161 1112.31 153.555 1123.92 147.77C1137.68 140.917 1151.17 138.181 1164.03 139.637C1171.85 140.523 1179.67 142.631 1187.93 146.082C1207.12 154.028 1225.12 168.5 1242.53 182.495C1245.16 184.611 1247.88 186.799 1250.53 188.905C1268.94 203.512 1286.84 220.14 1303.73 238.321C1322.17 258.115 1340.23 280.666 1357.4 305.349C1372.57 327.165 1387.46 351.223 1401.65 376.852L1401.31 377.036Z" fill="#94CDFF"/>
<path d="M1400.11 362.852C1372.14 306.692 1339.73 259.286 1303.76 221.949C1286.42 203.897 1267.85 187.821 1248.58 174.166C1247.66 173.516 1246.74 172.866 1245.82 172.214C1225.78 157.997 1205.05 143.296 1183.52 136.677C1175.18 134.113 1167.37 132.784 1159.66 132.612C1129.9 131.952 1104.53 153.391 1088.48 171.49C1079.04 182.079 1070.65 193.685 1062.55 204.908C1060.55 207.683 1058.47 210.552 1056.43 213.347C1048.63 223.993 1041.39 236.096 1033.72 248.912C1019.77 272.222 1005.35 296.325 985.435 315.461C973.915 326.532 961.492 334.835 947.455 340.847C919.8 352.688 891.72 355.798 865.497 357.394C849.326 358.378 832.428 358.21 815.271 356.896C801.181 355.784 787.253 353.881 773.872 351.242C735.189 343.63 697.624 327.91 662.226 304.517C648.05 295.15 633.553 284.013 616.607 269.468C584.401 241.901 560.485 222.484 539.064 206.512C496.459 174.746 463.942 156.057 430.339 144.022C407.842 135.965 384.21 130.428 360.098 127.562C343.369 125.575 325.615 125.753 302.535 128.144C297.805 128.64 292.966 129.223 288.151 129.881C283.603 130.512 278.983 131.234 274.09 131.997C256.026 134.817 235.551 138.014 212.116 137.417C199.764 137.103 187.148 136.242 174.947 135.411C161.081 134.466 146.744 133.488 133.15 133.355C119.521 133.223 106.781 134.292 95.2951 136.537C54.2085 144.561 21.6377 162.332 8.16962 184.074L7.7876 183.845C11.2854 178.197 16.0527 172.773 21.956 167.723C27.6544 162.848 34.4392 158.298 42.1233 154.197C57.0497 146.23 75.4064 139.972 95.2075 136.106C106.726 133.857 119.493 132.784 133.154 132.916C146.76 133.049 161.105 134.027 174.977 134.974C187.174 135.805 199.784 136.666 212.126 136.98C235.519 137.575 255.972 134.382 274.017 131.566C278.911 130.8 283.535 130.08 288.086 129.448C292.907 128.79 297.749 128.207 302.483 127.709C325.599 125.316 343.382 125.136 360.147 127.129C384.294 129.998 407.959 135.543 430.488 143.612C464.137 155.663 496.688 174.371 539.331 206.165C560.759 222.142 584.683 241.565 616.898 269.14C633.832 283.674 648.313 294.799 662.473 304.156C697.823 327.516 735.333 343.214 773.958 350.815C787.32 353.45 801.232 355.349 815.303 356.461C832.44 357.773 849.316 357.941 865.467 356.959C891.651 355.364 919.683 352.263 947.274 340.448C961.259 334.46 973.639 326.184 985.119 315.153C1004.99 296.058 1019.4 271.98 1033.33 248.695C1041 235.871 1048.25 223.758 1056.06 213.097C1058.1 210.304 1060.18 207.435 1062.18 204.66C1070.29 193.427 1078.68 181.814 1088.14 171.207C1098.61 159.395 1109.59 150.051 1120.77 143.435C1133.87 135.684 1146.96 131.899 1159.67 132.178C1167.43 132.35 1175.27 133.687 1183.65 136.264C1205.25 142.906 1226.01 157.626 1246.08 171.865C1247 172.517 1247.92 173.169 1248.84 173.817C1268.14 187.487 1286.73 203.582 1304.09 221.654C1340.09 259.024 1372.52 306.467 1400.51 362.666L1400.11 362.852Z" fill="#94CDFF"/>
<path d="M875.397 357.192C874.28 357.192 873.18 357.19 872.098 357.184C856.011 357.118 839.119 355.888 821.894 353.526C807.855 351.565 794.015 348.858 780.758 345.483C761.817 340.67 742.807 333.752 724.254 324.924C706.337 316.399 688.292 305.828 670.62 293.502C653.304 281.426 637.13 267.97 624.973 257.596C596.529 233.389 569.466 213.157 544.535 197.458C504.157 172.034 468.174 156.534 431.291 148.682C409.041 143.945 385.169 141.446 362.184 141.446C361.828 141.446 361.474 141.446 361.118 141.448C341.372 141.515 322.626 145.114 305.312 148.994C300.805 150.011 296.143 151.122 291.456 152.299C288.887 152.951 286.314 153.622 283.593 154.332C264.394 159.351 242.633 165.036 216.197 164.57C200.096 164.285 183.652 162.649 167.748 161.066C157.48 160.043 146.863 158.988 136.735 158.349C122.814 157.473 110.002 157.754 98.6533 159.189C57.7855 164.349 23.6966 178.215 7.46293 196.281L7.08887 195.959C15.4156 186.694 27.9406 178.672 44.3155 172.114C59.9543 165.852 78.7228 161.215 98.5896 158.706C109.968 157.27 122.814 156.985 136.767 157.865C146.905 158.504 157.527 159.561 167.8 160.584C183.694 162.167 200.128 163.803 216.207 164.086C242.576 164.552 264.299 158.874 283.465 153.866C286.189 153.154 288.762 152.482 291.332 151.83C296.024 150.653 300.69 149.541 305.2 148.524C322.544 144.638 341.323 141.033 361.116 140.964C384.467 140.884 408.766 143.39 431.397 148.21C450.432 152.264 468.886 158.23 487.81 166.451C506.035 174.37 524.678 184.379 544.802 197.052C569.752 212.762 596.836 233.011 625.298 257.233C637.445 267.601 653.607 281.047 670.905 293.109C706.765 318.12 743.766 335.583 780.882 345.016C794.121 348.387 807.943 351.09 821.962 353.05C839.165 355.408 856.033 356.638 872.098 356.702C897.235 356.803 926.424 355.972 954.892 344.72C969.301 339.024 981.766 330.696 993.002 319.26C1012.73 299.176 1025.81 273.398 1038.47 248.467C1044.97 235.644 1051.12 223.531 1057.8 213.045C1059.94 209.686 1062.1 206.226 1064.19 202.878C1071.25 191.569 1078.55 179.878 1086.96 169.071C1096.57 156.638 1106.88 146.552 1117.61 139.096C1130.05 130.452 1142.72 125.615 1155.29 124.721C1163.05 124.169 1170.92 124.733 1179.36 126.447C1201.93 131.026 1224.29 144.329 1247.13 158.728C1267.04 171.282 1286.85 187.277 1304.43 204.986C1323.95 224.6 1342.3 247.61 1358.96 273.376C1373.8 296.332 1387.39 321.6 1399.35 348.481L1398.9 348.676C1373.2 290.949 1341.3 242.719 1304.07 205.328C1286.52 187.644 1266.74 171.672 1246.86 159.14C1224.07 144.767 1201.74 131.488 1179.26 126.925C1170.87 125.221 1163.04 124.661 1155.33 125.209C1132.23 126.855 1108.09 142.536 1087.36 169.367C1078.96 180.155 1071.67 191.837 1064.62 203.134C1062.53 206.483 1060.37 209.946 1058.22 213.305C1051.55 223.771 1045.41 235.874 1038.91 248.686C1032.7 260.918 1026.28 273.568 1018.92 285.728C1010.57 299.513 1002.21 310.592 993.362 319.6C982.076 331.086 969.556 339.452 955.079 345.174C942.311 350.222 928.588 353.558 913.127 355.377C900.033 356.909 886.881 357.192 875.397 357.192Z" fill="#94CDFF"/>
<path d="M907.303 358.169C897.158 358.169 887.413 357.576 878.694 356.975C862.663 355.87 845.779 353.577 828.513 350.157C814.533 347.348 800.781 343.839 787.637 339.723C751.646 328.474 716.112 309.75 679.007 282.485C662.825 270.597 647.57 257.804 633.336 245.723C605.234 221.939 577.2 202.655 550.007 188.403C510.015 167.442 472.597 156.299 432.251 153.337C409.262 151.648 385.02 152.337 362.143 155.327C342.995 157.83 324.942 163.869 308.09 169.837C303.874 171.338 299.389 172.978 294.763 174.709C293.607 175.144 292.441 175.587 291.259 176.034C271.85 183.397 249.888 191.727 221.703 191.727C221.227 191.727 220.753 191.725 220.274 191.719C201.205 191.53 181.736 188.86 162.906 186.276C155.441 185.251 147.721 184.193 140.313 183.336C125.844 181.665 113.314 181.172 102.002 181.831C60.862 184.232 26.1364 193.944 6.73316 208.484L6.40088 208.056C15.9931 200.869 29.863 194.629 46.5066 190.011C62.8775 185.47 82.0559 182.456 101.968 181.295C113.312 180.633 125.874 181.127 140.375 182.801C147.79 183.658 155.512 184.718 162.98 185.741C181.792 188.321 201.243 190.989 220.276 191.179C249.049 191.468 271.369 182.999 291.058 175.529C292.238 175.082 293.406 174.639 294.562 174.202C299.192 172.468 303.679 170.829 307.899 169.328C324.779 163.348 342.865 157.301 362.065 154.791C384.978 151.797 409.26 151.106 432.287 152.796C452.281 154.264 471.344 157.73 490.564 163.39C510.359 169.221 529.886 177.245 550.26 187.925C577.487 202.197 605.557 221.504 633.689 245.311C647.917 257.389 663.161 270.173 679.33 282.05C716.385 309.278 751.865 327.975 787.798 339.205C800.922 343.314 814.657 346.819 828.616 349.624C845.858 353.04 862.719 355.331 878.726 356.432C905.662 358.286 934.317 359.239 962.507 348.978C977.34 343.577 989.892 335.196 1000.88 323.355C1020.45 302.261 1032.64 273.489 1043.39 248.104C1048.79 235.331 1053.9 223.267 1059.54 212.983C1061.57 209.272 1063.62 205.437 1065.6 201.728C1071.79 190.125 1078.2 178.127 1085.77 166.921C1094.54 153.867 1104.19 143.041 1114.44 134.742C1126.22 125.211 1138.49 119.324 1150.91 117.249C1158.67 115.951 1166.57 115.744 1175.07 116.611C1198.79 119.037 1222.9 131.025 1245.41 143.62C1266.2 155.249 1286.73 170.7 1304.77 188.302C1324.84 207.824 1343.33 231.064 1359.73 257.373C1374.39 280.9 1387.34 306.774 1398.2 334.279L1397.69 334.472C1374.6 276.007 1342.33 225.593 1304.38 188.68C1286.38 171.112 1265.89 155.69 1245.14 144.085C1222.68 131.519 1198.64 119.56 1175.01 117.144C1166.57 116.281 1158.72 116.488 1151.01 117.776C1128.08 121.608 1105.07 139.164 1086.23 167.214C1078.67 178.396 1072.27 190.382 1066.09 201.974C1064.11 205.685 1062.06 209.52 1060.03 213.234C1054.4 223.495 1049.3 235.548 1043.89 248.307C1033.13 273.731 1020.92 302.55 1001.29 323.714C990.237 335.62 977.614 344.048 962.698 349.48C949.753 354.192 935.789 356.92 920.005 357.816C915.738 358.07 911.488 358.169 907.303 358.169Z" fill="#94CDFF"/>
<path d="M927.329 360.283C927.184 360.283 927.04 360.283 926.895 360.283C912.558 360.248 898.481 358.527 885.289 356.766C869.282 354.631 852.408 351.272 835.132 346.787C821.216 343.135 807.551 338.819 794.519 333.963C759.966 321.106 725.929 301.25 687.399 271.471C673.523 260.75 659.868 249.205 646.661 238.042C645.009 236.645 643.356 235.249 641.703 233.854C613.455 210.076 584.448 191.739 555.488 179.353C515.832 162.393 475.838 155.406 433.219 157.992C409.851 159.411 385.631 163.289 363.177 169.207C345.461 173.878 329.675 181.371 310.877 190.681C307.067 192.576 302.998 194.622 298.075 197.12L297.801 197.261C288.304 202.113 277.54 207.611 265.467 211.792C251.601 216.594 238.149 218.905 224.354 218.877C202.844 218.825 180.892 214.898 159.664 211.097C154.463 210.166 149.083 209.204 143.89 208.334C128.998 205.841 116.391 204.582 105.35 204.486C64.6976 204.135 28.4818 210.045 5.9906 220.698L5.73193 220.171C16.7487 214.952 31.6095 210.717 48.7067 207.922C65.8357 205.121 85.426 203.731 105.356 203.903C116.429 203.999 129.067 205.259 143.992 207.758C149.189 208.628 154.569 209.59 159.772 210.521C180.974 214.316 202.898 218.239 224.356 218.292C224.452 218.292 224.549 218.292 224.645 218.292C255.339 218.292 278.724 206.347 297.526 196.742L297.803 196.601C302.727 194.101 306.796 192.055 310.608 190.16C329.439 180.834 345.252 173.327 363.024 168.643C385.515 162.713 409.775 158.829 433.184 157.408C454.039 156.144 473.711 157.108 493.327 160.359C514.465 163.863 534.877 169.9 555.727 178.818C584.742 191.228 613.799 209.594 642.093 233.411C643.746 234.806 645.399 236.204 647.051 237.601C660.252 248.76 673.903 260.301 687.767 271.015C726.247 300.757 760.235 320.585 794.73 333.42C807.744 338.271 821.389 342.578 835.285 346.226C852.537 350.706 869.388 354.059 885.369 356.19C913.994 360.012 942.019 362.663 970.133 353.263C985.389 348.161 998.028 339.727 1008.77 327.477C1028.17 305.349 1038.76 274.688 1048.11 247.634C1052.49 234.968 1056.63 223.003 1061.29 212.95C1063.08 209.081 1064.88 205.08 1066.63 201.209C1072.07 189.108 1077.7 176.597 1084.6 164.8C1092.54 151.12 1101.52 139.549 1111.29 130.411C1122.41 119.996 1134.27 113.063 1146.53 109.807C1154.13 107.789 1161.89 106.805 1170.23 106.805C1170.41 106.805 1170.59 106.805 1170.77 106.807C1196.69 106.94 1223.36 118.491 1243.71 128.539C1265.38 139.245 1286.61 154.149 1305.12 171.641C1325.73 191.073 1344.37 214.542 1360.51 241.398C1374.99 265.497 1387.29 291.977 1397.06 320.107L1396.49 320.296C1381.96 278.441 1354.23 218.75 1304.7 172.065C1286.24 154.611 1265.05 139.742 1243.44 129.062C1223.15 119.041 1196.56 107.523 1170.77 107.393C1162.28 107.344 1154.41 108.324 1146.69 110.373C1123.97 116.406 1102.11 135.839 1085.12 165.091C1078.23 176.86 1072.61 189.358 1067.17 201.445C1065.43 205.318 1063.63 209.321 1061.83 213.192C1057.18 223.22 1053.05 235.169 1048.68 247.821C1039.31 274.924 1028.69 305.644 1009.22 327.858C998.41 340.189 985.686 348.68 970.326 353.815C957.307 358.166 943.236 360.283 927.329 360.283Z" fill="#94CDFF"/>
<path d="M943.253 363.031C940.165 363.031 937.009 362.934 933.778 362.738C919.635 361.885 905.891 359.326 891.883 356.555C875.646 353.342 859.247 349.044 841.75 343.415C827.906 338.922 814.33 333.804 801.399 328.201C768.596 314.007 736.025 293.113 695.792 260.455C685.8 252.345 675.812 243.839 666.152 235.612C660.893 231.134 655.457 226.503 650.071 221.98C621.488 198.043 591.511 180.656 560.974 170.3C520.626 156.615 479.157 154.109 434.195 162.639C410.44 167.146 386.242 174.213 364.218 183.076C346.526 190.197 331.114 200.196 314.797 210.783L313.669 211.515C311.12 213.174 308.543 214.856 305.935 216.558C304.433 217.54 302.921 218.527 301.394 219.523C291.88 225.763 281.603 232.272 269.819 237.283C256.136 243.099 242.602 245.96 228.439 246.031C204.862 246.144 180.813 240.769 157.558 235.565C154.239 234.821 150.805 234.054 147.472 233.326C131.847 229.911 119.529 227.945 108.701 227.137C68.7449 224.156 31.0368 226.257 5.24279 232.901L5.07764 232.288C30.9393 225.626 68.725 223.518 108.751 226.505C119.609 227.315 131.959 229.286 147.613 232.707C150.948 233.437 154.382 234.205 157.703 234.948C180.674 240.087 204.418 245.398 227.683 245.398C227.934 245.398 228.185 245.398 228.437 245.396C258.529 245.248 279.95 232.823 301.038 218.996C302.564 218 304.077 217.013 305.579 216.031C308.187 214.327 310.762 212.647 313.313 210.986L314.441 210.254C330.786 199.649 346.224 189.633 363.973 182.489C386.037 173.608 410.277 166.529 434.073 162.014C479.149 153.463 520.729 155.977 561.187 169.699C591.8 180.082 621.846 197.508 650.493 221.498C655.879 226.022 661.317 230.652 666.576 235.132C676.231 243.357 686.218 251.861 696.204 259.965C736.389 292.586 768.914 313.451 801.66 327.621C814.573 333.215 828.128 338.327 841.953 342.812C859.424 348.433 875.799 352.725 892.013 355.932C916.625 360.802 947.256 366.865 977.759 357.527C993.442 352.727 1006.16 344.241 1016.65 331.581C1035.86 308.394 1044.77 275.78 1052.63 247.009C1056.05 234.509 1059.27 222.702 1063.04 212.904C1064.5 209.086 1065.97 205.138 1067.39 201.318C1072.16 188.508 1077.09 175.263 1083.42 162.666C1090.56 148.349 1098.87 136.035 1108.12 126.065C1118.61 114.768 1130.05 106.791 1142.15 102.355C1149.92 99.5068 1157.87 97.7522 1166.48 96.989C1178 95.9662 1190.27 97.0592 1203.98 100.323C1215.58 103.086 1228.01 107.377 1241.99 113.441C1264.55 123.222 1286.49 137.581 1305.46 154.966C1326.63 174.307 1345.41 198.008 1361.29 225.408C1375.59 250.081 1387.24 277.168 1395.91 305.921L1395.29 306.1C1376.98 245.398 1344.92 191.889 1305.02 155.431C1286.1 138.093 1264.22 123.774 1241.73 114.023C1211.6 100.957 1187.71 95.7437 1166.53 97.6214C1157.99 98.3787 1150.09 100.122 1142.38 102.948C1113.6 113.501 1094.75 141.401 1084 162.945C1077.69 175.511 1072.76 188.741 1068 201.535C1066.58 205.356 1065.11 209.307 1063.64 213.127C1059.89 222.896 1056.67 234.689 1053.26 247.172C1045.38 276.007 1036.45 308.688 1017.15 331.981C1006.58 344.74 993.758 353.295 977.95 358.134C967.236 361.413 955.809 363.031 943.253 363.031Z" fill="#94CDFF"/>
<path d="M957.049 366.182C936.008 366.182 915.779 360.879 898.473 356.342C882.192 352.076 865.801 346.743 848.363 340.043C834.597 334.714 821.109 328.792 808.275 322.439C769.805 303.417 735.509 276.113 704.18 249.439C697.783 243.993 691.321 238.38 685.073 232.952C676.398 225.414 667.427 217.62 658.438 210.11C629.426 185.936 598.481 169.496 566.464 161.245C525.045 150.575 482.098 152.548 435.169 167.281C411.007 174.865 386.832 185.122 365.259 196.942C348.619 206.058 334.54 217.565 319.636 229.749C318.579 230.612 317.521 231.478 316.456 232.345L315.879 232.817C312.256 235.782 308.509 238.846 304.711 241.922C295.61 249.326 285.588 256.983 273.997 262.832C260.54 269.623 246.975 273.009 232.52 273.185C207.148 273.495 181.288 266.498 156.282 259.731C154.529 259.257 152.784 258.784 151.047 258.318C134.557 253.879 122.527 251.248 112.046 249.784C73.0921 244.347 33.8878 242.637 4.48448 245.094L4.4248 244.413C33.8758 241.95 73.1379 243.661 112.143 249.107C122.655 250.575 134.71 253.212 151.23 257.658C152.967 258.124 154.712 258.597 156.467 259.073C181.425 265.826 207.235 272.806 232.51 272.502C263.901 272.119 286.008 256.245 304.265 241.395C308.064 238.319 311.81 235.255 315.433 232.292L316.01 231.82C317.075 230.951 318.133 230.086 319.19 229.224C334.12 217.019 348.223 205.491 364.918 196.345C386.532 184.503 410.752 174.229 434.957 166.631C457.205 159.647 478.102 155.614 498.841 154.303C521.975 152.841 544.784 154.955 566.639 160.586C598.758 168.862 629.795 185.349 658.887 209.588C667.883 217.103 676.856 224.899 685.533 232.438C691.781 237.866 698.239 243.478 704.634 248.922C735.931 275.566 770.185 302.841 808.586 321.828C821.401 328.172 834.869 334.086 848.616 339.406C866.027 346.097 882.392 351.422 898.65 355.683C923.612 362.225 954.679 370.368 985.376 361.8C1001.48 357.303 1014.29 348.764 1024.53 335.694C1043.54 311.415 1050.65 276.796 1056.93 246.25C1059.45 233.976 1061.84 222.385 1064.77 212.865C1065.86 209.344 1066.95 205.706 1068 202.187C1072.13 188.423 1076.4 174.188 1082.23 160.539C1088.58 145.574 1096.23 132.513 1104.95 121.721C1114.79 109.543 1125.83 100.522 1137.76 94.9067C1145.51 91.2607 1153.49 88.7331 1162.17 87.1775C1173.86 85.0832 1186.83 85.1535 1200.72 87.3863C1212.89 89.3421 1226.2 93.0291 1240.27 98.3478C1263.7 107.203 1286.36 121.016 1305.8 138.294C1327.51 157.545 1346.44 181.474 1362.06 209.421C1376.17 234.667 1387.17 262.364 1394.76 291.739L1394.08 291.907C1378.01 229.663 1346.49 175.289 1305.33 138.801C1285.95 121.58 1263.37 107.812 1240.02 98.9861C1209.75 87.5464 1184.33 83.9023 1162.29 87.8509C1153.68 89.3948 1145.75 91.9048 1138.06 95.5235C1109.67 108.884 1092.38 138.395 1082.88 160.802C1077.06 174.416 1072.79 188.632 1068.67 202.378C1067.62 205.897 1066.53 209.538 1065.44 213.063C1062.51 222.55 1060.13 234.127 1057.61 246.384C1054.59 261.08 1051.17 277.735 1046.2 293.349C1040.51 311.24 1033.6 325.226 1025.08 336.11C1020.15 342.402 1014.49 347.758 1008.25 352.029C1001.53 356.622 993.903 360.131 985.567 362.458C976.028 365.122 966.456 366.182 957.049 366.182Z" fill="#94CDFF"/>
<path d="M969.484 369.638C962.528 369.638 955.24 368.974 947.542 367.649C932.381 365.039 917.868 360.304 905.063 356.129C888.922 350.865 872.07 344.317 854.977 336.668C841.298 330.512 827.898 323.786 815.152 316.673C778.568 296.282 747.049 269.169 712.569 238.42C709.504 235.688 706.393 232.901 703.384 230.203C691.536 219.587 679.285 208.61 666.804 198.238C637.311 173.782 605.399 158.29 571.953 152.192C529.764 144.5 484.069 151.137 436.144 171.92C411.552 182.584 387.4 196.029 366.299 210.802C350.412 221.925 337.334 235.04 323.488 248.925C322.081 250.336 320.668 251.751 319.248 253.172C315.712 256.713 311.904 260.513 308.03 264.317C299.906 272.322 290.005 281.443 278.177 288.377C264.936 296.142 251.336 300.055 236.605 300.338C209.637 300.859 182.185 292.1 155.637 283.629L154.627 283.307C141.628 279.161 127.878 274.972 115.394 272.429C77.344 264.678 37.688 259.297 3.73438 257.277L3.78013 256.547C37.7696 258.569 77.4614 263.954 115.546 271.713C128.065 274.264 141.839 278.458 154.857 282.61L155.868 282.932C182.359 291.383 209.754 300.122 236.591 299.604C267.584 299.007 288.989 282.042 307.503 263.796C311.376 259.994 315.181 256.194 318.716 252.655C320.137 251.236 321.55 249.819 322.956 248.41C336.826 234.501 349.928 221.363 365.867 210.203C387.008 195.4 411.206 181.931 435.844 171.246C458.329 161.497 480.456 154.779 501.606 151.281C525.773 147.286 549.488 147.348 572.092 151.468C605.666 157.589 637.695 173.136 667.288 197.676C679.779 208.058 692.035 219.039 703.89 229.661C706.898 232.356 710.01 235.143 713.074 237.876C747.521 268.596 779.005 295.679 815.524 316.035C828.252 323.136 841.632 329.852 855.291 336C872.36 343.638 889.185 350.176 905.301 355.432C930.564 363.673 962.005 373.926 993.008 366.07C1009.54 361.879 1022.43 353.289 1032.41 339.806C1051.22 314.403 1056.66 276.114 1061.03 245.347C1062.74 233.363 1064.34 222.045 1066.52 212.832C1067.21 209.928 1067.9 206.935 1068.58 204.041C1072.06 189.004 1075.66 173.454 1081.06 158.417C1089.41 135.016 1105.25 103.713 1133.38 87.4679C1141.14 82.9826 1149.15 79.6801 1157.87 77.373C1180.67 71.2501 1207.82 73.2312 1238.56 83.2578C1262.87 91.1881 1286.24 104.455 1306.14 121.625C1328.41 140.784 1347.48 164.944 1362.84 193.439C1369.89 206.508 1376.11 220.467 1381.35 234.929C1386.35 248.742 1390.48 263.086 1393.62 277.562L1392.89 277.715C1379.06 213.925 1348.08 158.686 1305.65 122.173C1285.82 105.068 1262.54 91.8517 1238.32 83.9507C1207.73 73.969 1180.72 71.9938 1158.06 78.0776C1149.41 80.3671 1141.46 83.6442 1133.75 88.0964C1105.82 104.228 1090.07 135.372 1081.77 158.657C1076.38 173.655 1072.78 189.184 1069.3 204.201C1068.63 207.095 1067.94 210.09 1067.25 212.996C1065.08 222.177 1063.47 233.48 1061.77 245.447C1059.57 260.929 1057.08 278.476 1052.82 295.037C1047.92 314.067 1041.44 328.852 1033.02 340.236C1028.21 346.729 1022.59 352.206 1016.31 356.512C1009.54 361.151 1001.76 364.606 993.193 366.777C985.67 368.685 977.813 369.638 969.484 369.638Z" fill="#94CDFF"/>
<path d="M980.944 373.288C972.607 373.288 963.815 372.229 954.424 370.103C939.207 366.662 924.567 360.951 911.65 355.911C895.389 349.568 878.546 341.958 861.59 333.29C848.001 326.312 834.69 318.782 822.028 310.906C787.185 289.25 757.3 261.339 725.66 231.793C724.094 230.331 722.528 228.867 720.959 227.403C706.245 213.678 691.032 199.484 675.172 186.368C645.166 161.601 612.287 147.056 577.448 143.137C533.687 138.212 486.475 149.457 437.119 176.554C412.431 190.107 387.65 207.192 367.339 224.659C352.003 237.847 339.703 252.687 326.681 268.399C325.139 270.259 323.593 272.125 322.035 273.995C318.923 277.737 315.22 282.173 311.344 286.711C304.166 295.137 294.384 305.845 282.355 313.9C269.325 322.627 255.695 327.075 240.687 327.495C228.351 327.797 214.738 325.929 199.067 321.782C185.613 318.221 172.599 313.568 158.198 308.298C145.052 303.429 131.178 298.399 118.731 295.077C81.8603 285.236 42.9146 276.618 2.97803 269.459L3.12128 268.692C43.0817 275.853 82.0493 284.478 118.94 294.323C131.421 297.655 145.315 302.693 158.476 307.566C182.615 316.402 212.657 327.403 240.665 326.714C272.687 325.816 293.266 306.715 310.733 286.208C314.607 281.673 318.308 277.239 321.418 273.499C322.976 271.629 324.522 269.763 326.062 267.905C339.106 252.168 351.428 237.303 366.814 224.071C387.166 206.569 411.995 189.451 436.731 175.873C486.236 148.693 533.612 137.42 577.54 142.362C594.382 144.257 610.926 148.658 626.708 155.443C643.642 162.721 660.121 172.927 675.686 185.772C691.563 198.902 706.786 213.104 721.508 226.839C723.078 228.305 724.645 229.767 726.211 231.228C757.821 260.75 787.68 288.634 822.455 310.248C835.1 318.112 848.391 325.633 861.96 332.599C878.892 341.253 895.709 348.853 911.947 355.187C937.466 365.141 969.227 377.53 1000.63 370.345C1017.64 366.453 1030.62 357.81 1040.29 343.925C1058.93 317.404 1062.25 276.889 1064.92 244.337C1065.87 232.694 1066.77 221.698 1068.27 212.805C1068.57 210.97 1068.88 209.126 1069.19 207.272C1071.98 190.523 1074.87 173.202 1079.88 156.3C1087.04 131.988 1101.37 99.0213 1128.99 80.0339C1136.69 74.7366 1144.73 70.6612 1153.56 67.5734C1165.84 63.2423 1179.52 61.2065 1194.23 61.5188C1207.66 61.8038 1221.99 64.0426 1236.84 68.1707C1262.02 75.1719 1286.1 87.892 1306.48 104.955C1329.29 124.02 1348.52 148.414 1363.62 177.456C1370.54 190.781 1376.54 205.027 1381.45 219.799C1386.14 233.945 1389.85 248.611 1392.46 263.389L1391.68 263.521C1380.29 199.129 1349.04 141.55 1305.96 105.548C1285.68 88.5595 1261.7 75.8921 1236.62 68.9182C1205.7 60.3185 1177.07 60.1077 1153.83 68.3054C1145.06 71.3697 1137.09 75.4139 1129.44 80.6702C1102.02 99.5268 1087.77 132.323 1080.64 156.514C1075.64 173.372 1072.76 190.667 1069.98 207.395C1069.67 209.249 1069.36 211.095 1069.05 212.93C1067.56 221.789 1066.66 232.772 1065.71 244.397C1063.03 277.044 1059.7 317.675 1040.95 344.366C1036.28 351.059 1030.71 356.661 1024.37 361.011C1017.56 365.692 1009.63 369.088 1000.81 371.106C994.446 372.558 987.852 373.288 980.944 373.288Z" fill="#94CDFF"/>
<path d="M991.713 377.089C982.214 377.089 972.151 375.582 961.305 372.557C945.961 368.276 931.229 361.591 918.235 355.695C901.812 348.243 884.977 339.567 868.199 329.913C854.707 322.125 841.485 313.789 828.899 305.141C797.906 283.85 771.417 257.768 743.373 230.153C738.789 225.639 734.047 220.972 729.344 216.383C712.81 200.261 698.691 186.967 683.536 174.497C652.994 149.402 619.15 135.804 582.94 134.078C537.441 131.91 488.704 147.759 438.087 181.184C412.941 197.79 388.182 218.148 368.371 238.509C353.446 253.849 341.779 270.546 329.427 288.224C327.897 290.414 326.361 292.612 324.815 294.812C322.061 298.737 318.416 303.909 314.654 309.095C298.82 330.971 278.134 353.493 244.765 354.645C243.724 354.678 242.68 354.694 241.637 354.694C215.58 354.694 188.979 344.577 161.764 333.282L160.065 332.572C146.585 326.927 133.851 321.596 122.064 317.716C77.6449 303.093 34.686 290.75 2.22266 281.631L2.45546 280.833C34.9268 289.955 77.8976 302.301 122.333 316.93C134.151 320.82 146.899 326.158 160.397 331.808L162.094 332.519C190.306 344.228 217.857 354.672 244.735 353.817C277.734 352.677 298.247 330.329 313.963 308.617C317.724 303.435 321.365 298.266 324.119 294.343C325.665 292.141 327.199 289.946 328.729 287.756C341.1 270.051 352.786 253.325 367.758 237.937C387.609 217.533 412.418 197.134 437.613 180.495C460.998 165.052 484.39 153.195 507.14 145.249C533.242 136.132 558.76 132.095 582.98 133.249C619.377 134.982 653.392 148.647 684.077 173.859C699.254 186.348 713.387 199.656 729.937 215.792C734.642 220.38 739.384 225.049 743.97 229.564C771.986 257.151 798.449 283.208 829.382 304.456C841.951 313.094 855.152 321.417 868.624 329.193C885.379 338.835 902.188 347.497 918.587 354.938C944.329 366.619 976.367 381.157 1008.25 374.612C1025.68 371.034 1038.74 362.341 1048.17 348.036C1066.57 320.306 1067.67 277.512 1068.56 243.127C1068.85 231.908 1069.13 221.31 1070.01 212.77L1070.03 212.575C1071.99 193.453 1074.03 173.681 1078.7 154.173C1082.74 137.156 1088.36 121.858 1095.42 108.699C1103.38 93.863 1113.19 81.7148 1124.59 72.59C1132.22 66.4846 1140.28 61.6344 1149.25 57.7639C1173.48 47.2455 1203.17 45.6216 1235.11 53.0717C1247.96 56.0697 1260.64 60.6116 1272.8 66.5686C1285.03 72.5607 1296.47 79.8664 1306.82 88.2788C1330.18 107.253 1349.56 131.877 1364.39 161.468C1377.73 188.066 1387.04 218.407 1391.31 249.209L1390.48 249.32C1381.32 183.395 1350.63 124.93 1306.28 88.917C1285.53 72.0493 1260.86 59.9324 1234.92 53.8836C1203.15 46.4764 1173.65 48.0828 1149.59 58.529C1140.7 62.3702 1132.69 67.1815 1125.13 73.238C1103.85 90.2755 1088.08 118.329 1079.52 154.366C1074.87 173.824 1072.84 193.568 1070.87 212.663L1070.85 212.858C1069.97 221.366 1069.7 231.949 1069.41 243.152C1068.52 277.643 1067.41 320.566 1048.87 348.491C1044.33 355.389 1038.79 361.111 1032.42 365.499C1025.55 370.23 1017.48 373.57 1008.43 375.43C1003.03 376.535 997.477 377.089 991.713 377.089Z" fill="#94CDFF"/>
<path d="M245.383 381.868C233.732 381.868 221.044 379.641 206.724 375.094C192.496 370.575 178.425 364.337 165.337 358.271C162.967 357.166 160.615 356.063 158.28 354.968C146.652 349.517 135.669 344.368 125.404 340.357C84.4749 324.369 45.4615 310 7.73152 296.107L1.47998 293.804L1.79434 292.982L8.04588 295.285C45.7779 309.182 84.7972 323.552 125.735 339.543C136.027 343.564 147.024 348.718 158.666 354.178C160.999 355.273 163.351 356.375 165.719 357.478C192.585 369.931 221.129 381.999 248.813 380.924C282.844 379.534 303.239 353.528 317.202 331.029C320.779 325.275 324.226 319.54 326.828 315.188C328.265 312.789 329.691 310.392 331.114 308.001C342.912 288.18 354.057 269.458 368.712 251.806C388.058 228.509 412.843 204.826 438.506 185.122C462.314 166.841 486.34 152.398 509.917 142.193C536.961 130.488 563.375 124.414 588.427 124.139C626.123 123.589 661.136 136.311 692.477 161.948C709.851 176.177 725.428 191.569 738.376 204.749C745.422 211.922 752.467 219.275 759.282 226.386C783.402 251.558 808.345 277.586 836.318 298.668C848.813 308.087 861.929 317.214 875.297 325.792C891.841 336.385 908.642 346.109 925.236 354.693C951.173 368.11 983.451 384.808 1015.88 378.882C1033.73 375.62 1046.87 366.876 1056.05 352.15C1074.2 323.163 1072.98 278.025 1071.99 241.756C1071.7 231.031 1071.42 220.899 1071.76 212.742C1072.5 194.354 1073.63 172.983 1077.52 152.052C1080.8 134.316 1085.76 118.27 1092.25 104.361C1099.59 88.6273 1109 75.4369 1120.2 65.1546C1127.63 58.3408 1135.96 52.5575 1144.94 47.9629C1157.77 41.3852 1172.16 37.2493 1187.72 35.6723C1202.29 34.1947 1217.66 34.9715 1233.39 37.9793C1246.65 40.5167 1259.73 44.6897 1272.25 50.3851C1284.85 56.1157 1296.59 63.2555 1307.16 71.6054C1319.34 81.2201 1330.54 92.5739 1340.44 105.353C1349.83 117.46 1358.15 130.963 1365.17 145.484C1378.31 172.652 1386.95 203.619 1390.17 235.034L1389.28 235.122C1382.37 167.661 1352.23 108.312 1306.6 72.2905C1285.7 55.7741 1259.64 43.8953 1233.22 38.842C1200.55 32.5942 1170.17 36.0177 1145.36 48.7417C1136.44 53.2992 1128.19 59.0376 1120.82 65.7968C1099.69 85.1706 1085.42 114.243 1078.4 152.21C1074.51 173.085 1073.39 194.418 1072.65 212.777C1072.32 220.905 1072.59 231.021 1072.89 241.733C1073.37 259.625 1073.92 279.907 1072.08 299.513C1069.93 322.263 1064.94 339.631 1056.81 352.608C1052.39 359.709 1046.89 365.555 1040.48 369.982C1033.56 374.764 1025.33 378.049 1016.05 379.745C1011.36 380.602 1006.68 380.99 1002.02 380.99C974.156 380.99 947.15 367.019 924.82 355.468C908.202 346.87 891.376 337.132 874.81 326.524C861.421 317.934 848.287 308.794 835.774 299.361C807.744 278.236 782.776 252.181 758.631 226.985C751.819 219.876 744.775 212.526 737.734 205.357C724.803 192.191 709.248 176.821 691.906 162.619C660.734 137.119 625.926 124.471 588.441 125.013C529.573 125.661 474.714 158.431 439.059 185.809C413.448 205.474 388.713 229.106 369.409 252.357C354.797 269.956 343.669 288.649 331.888 308.438C330.465 310.829 329.037 313.226 327.6 315.627C324.996 319.982 321.547 325.72 317.968 331.48C312.107 340.925 302.904 354.673 290.716 364.979C284.796 369.984 278.497 373.917 271.993 376.671C264.741 379.741 256.953 381.466 248.851 381.796C247.703 381.845 246.547 381.868 245.383 381.868Z" fill="#94CDFF"/>
<path d="M249.124 409.042C237.459 409.042 224.796 406.643 210.552 401.748C195.805 396.681 181.225 389.557 168.909 383.255C165.124 381.315 161.348 379.347 157.695 377.444C147.484 372.125 137.838 367.099 128.743 362.997C96.083 348.26 63.6355 333.873 32.2545 319.959C21.8745 315.356 11.1422 310.598 0.740234 305.976L1.1302 305.131C11.5322 309.753 22.2644 314.511 32.6445 319.114C64.0255 333.028 96.4769 347.417 129.139 362.155C138.258 366.27 147.916 371.3 158.139 376.626C161.79 378.529 165.566 380.495 169.346 382.435C194.89 395.5 224.518 409.331 252.889 408.029C287.722 406.394 307.286 377.996 320.442 353.44C323.814 347.15 327.075 340.834 329.538 336.034C330.804 333.571 332.061 331.11 333.317 328.654C344.602 306.569 355.261 285.71 369.67 265.678C388.411 239.625 413.176 212.661 439.4 189.752C475.92 157.986 532.365 119.239 593.873 115.036C632.99 112.292 668.993 124.069 700.878 150.044C715.203 161.72 729.37 175.188 746.815 193.716C755.631 203.079 764.38 212.784 772.84 222.166C794.851 246.578 817.609 271.821 843.254 292.891C855.677 303.101 868.704 313.03 881.971 322.402C898.035 333.741 914.83 344.526 931.886 354.461C958.084 369.629 990.688 388.509 1023.51 383.165C1041.5 380.296 1055.1 371.249 1063.93 356.278C1081.83 325.98 1077.99 276.412 1075.18 240.219C1074.4 230.061 1073.65 220.468 1073.51 212.729C1073.18 195.53 1073.21 172.851 1076.35 149.947C1081.76 110.256 1095.04 79.2299 1115.82 57.7345C1123.1 50.1614 1131.45 43.5817 1140.64 38.1771C1153.71 30.4791 1168.45 25.3009 1184.47 22.7889C1199.56 20.4233 1215.43 20.4604 1231.66 22.9002C1245.36 25.0042 1258.83 28.8181 1271.69 34.2325C1284.68 39.7015 1296.73 46.6695 1307.5 54.9433C1319.95 64.5034 1331.33 75.8962 1341.31 88.8076C1350.77 101.044 1359.06 114.738 1365.95 129.513C1378.89 157.252 1386.86 188.845 1389.02 220.874L1388.08 220.935C1383.43 151.934 1353.85 91.6982 1306.92 55.6753C1285.64 39.3326 1258.87 28.0179 1231.52 23.8175C1197.81 18.7525 1166.56 23.9932 1141.13 38.9735C1132.02 44.3332 1123.74 50.8601 1116.51 58.3727C1095.87 79.7257 1082.67 110.576 1077.28 150.072C1074.15 172.914 1074.13 195.547 1074.45 212.714C1074.6 220.425 1075.34 230.007 1076.13 240.15C1077.58 258.859 1079.22 280.065 1078.28 300.768C1077.19 324.875 1072.76 343.186 1064.75 356.745C1060.43 364.058 1054.98 370.031 1048.54 374.497C1041.55 379.339 1033.18 382.564 1023.66 384.082C1008.9 386.485 993.012 384.326 975.087 377.481C959.506 371.53 944.578 362.887 931.408 355.263C914.327 345.315 897.51 334.514 881.422 323.16C868.135 313.773 855.091 303.831 842.649 293.607C816.951 272.494 794.167 247.224 772.133 222.787C763.677 213.406 754.931 203.708 746.123 194.353C728.707 175.857 714.566 162.415 700.275 150.766C668.579 124.94 632.805 113.233 593.937 115.959C532.693 120.146 476.435 158.775 440.025 190.445C413.852 213.307 389.139 240.215 370.438 266.213C356.069 286.188 345.426 307.018 334.158 329.07C332.903 331.527 331.645 333.989 330.38 336.452C327.915 341.255 324.652 347.577 321.275 353.874C308.004 378.648 288.243 407.299 252.93 408.956C251.675 409.013 250.403 409.042 249.124 409.042Z" fill="#94CDFF"/>
<path d="M252.94 436.217C221.066 436.217 187.621 417.013 157.973 399.987C148.863 394.756 140.257 389.814 132.08 385.635L0 318.147L0.459624 317.282L132.54 384.771C140.739 388.959 149.354 393.907 158.477 399.146C189.271 416.83 224.176 436.873 256.963 435.136C292.564 433.252 311.319 402.464 323.681 375.855C327.724 367.152 331.627 358.296 335.404 349.732C345.732 326.31 356.411 302.089 370.623 279.548C381.908 261.649 395.927 242.879 411.164 225.267C427.88 205.946 445.777 188.22 464.354 172.582C484.838 155.341 505.666 141.079 526.257 130.194C549.032 118.155 571.47 110.295 592.95 106.83C635.981 99.8916 675.117 110.422 709.27 138.132C737.653 161.158 761.775 189.631 785.104 217.167C805.411 241.136 826.407 265.918 850.184 287.103C877.647 311.571 907.371 334.152 938.531 354.215C964.785 371.12 997.459 392.16 1031.13 387.431C1059.57 383.438 1076.02 364.77 1081.4 330.36C1085.98 301.09 1081.63 266.369 1078.13 238.471C1076.93 228.964 1075.81 219.984 1075.25 212.701C1072.2 172.556 1074.15 139.416 1081.2 111.39C1085.6 93.9034 1092.1 78.3161 1100.5 65.0612C1109.89 50.2546 1121.95 37.9113 1136.33 28.3746C1148.78 20.1243 1162.8 14.1321 1178.02 10.5642C1192.51 7.16802 1207.76 6.0301 1223.36 7.18168C1254.03 9.4458 1284.03 20.4853 1307.83 38.2646C1320.56 47.768 1332.11 59.2018 1342.17 72.2459C1351.71 84.6088 1359.97 98.496 1366.72 113.525C1379.45 141.836 1386.76 174.055 1387.86 206.696L1386.87 206.729C1384.52 137.22 1354.75 74.5334 1307.23 39.0433C1256.76 1.35352 1185.12 -2.79411 1136.88 29.1847C1089.1 60.8628 1069.26 120.868 1076.24 212.629C1076.79 219.888 1077.92 228.857 1079.11 238.352C1082.62 266.31 1086.99 301.106 1082.38 330.508C1079.88 346.523 1074.84 359.393 1067.41 368.764C1063.23 374.032 1058.2 378.338 1052.44 381.558C1046.32 384.985 1039.19 387.287 1031.27 388.399C1028.04 388.854 1024.74 389.082 1021.39 389.082C1009.19 389.082 996.194 386.055 981.952 379.922C965.907 373.013 950.423 363.043 937.982 355.033C906.78 334.941 877.015 312.331 849.512 287.827C825.681 266.597 804.662 241.786 784.334 217.792C761.035 190.291 736.942 161.852 708.631 138.885C674.707 111.364 635.839 100.903 593.105 107.795C506.662 121.735 417.617 206.865 371.463 280.063C357.288 302.542 346.624 326.729 336.309 350.12C332.531 358.688 328.625 367.55 324.578 376.261C316.371 393.927 308.265 406.577 299.069 416.066C293.328 421.988 287.101 426.657 280.559 429.942C273.285 433.594 265.362 435.671 257.009 436.114C255.66 436.182 254.301 436.217 252.94 436.217Z" fill="#94CDFF"/>
</g>
</svg>
