<svg width="50" height="50" viewBox="0 0 50 50" fill="none" xmlns="http://www.w3.org/2000/svg">
<rect width="50" height="50" rx="25" fill="white"/>
<path d="M19.08 38.7679V31.6319L13 14.5759H17.896L20.968 24.2719C21.0747 24.5919 21.192 24.9759 21.32 25.4239C21.4693 25.8719 21.608 26.3092 21.736 26.7359C21.864 27.1626 21.9707 27.5252 22.056 27.8239H22.184C22.888 26.7572 23.464 25.5839 23.912 24.3039C24.3813 23.0239 24.7227 21.5946 24.936 20.0159C25.1493 18.4159 25.256 16.6026 25.256 14.5759L37.5098 11C37.0821 11.952 37.3958 11.5 37.4374 11.0159C37.4374 13.8639 31.512 26.0639 29.592 27.0879C29.592 27.0879 27.592 29.9679 23.848 31.7279L27.592 38.7679H19.08Z" fill="#2837BD"/>
<path d="M19.08 38.7679V31.6319L13 14.5759H17.896L20.968 24.2719C21.0747 24.5919 21.192 24.9759 21.32 25.4239C21.4693 25.8719 21.608 26.3092 21.736 26.7359C21.864 27.1626 21.9707 27.5252 22.056 27.8239H22.184C22.888 26.7572 23.464 25.5839 23.912 24.3039C24.3813 23.0239 24.7227 21.5946 24.936 20.0159C25.1493 18.4159 25.256 16.6026 25.256 14.5759L37.5098 11C37.0821 11.952 37.3958 11.5 37.4374 11.0159C37.4374 13.8639 31.512 26.0639 29.592 27.0879C29.592 27.0879 27.592 29.9679 23.848 31.7279L27.592 38.7679H19.08Z" fill="#2837BD"/>
</svg>
