<svg width="90" height="90" viewBox="0 0 90 90" fill="none" xmlns="http://www.w3.org/2000/svg">
<rect width="90" height="90" rx="45" fill="#ffffff"/>
<path d="M61.5909 34.5455C61.5909 38.3864 60.8523 41.642 59.375 44.3125C57.8977 46.983 55.8977 49.0114 53.375 50.3977C50.8636 51.7841 48.0455 52.4773 44.9205 52.4773C41.7841 52.4773 38.9602 51.7784 36.4489 50.3807C33.9375 48.983 31.9432 46.9545 30.4659 44.2955C29 41.625 28.267 38.375 28.267 34.5455C28.267 30.7045 29 27.4489 30.4659 24.7784C31.9432 22.108 33.9375 20.0795 36.4489 18.6932C38.9602 17.3068 41.7841 16.6136 44.9205 16.6136C48.0455 16.6136 50.8636 17.3068 53.375 18.6932C55.8977 20.0795 57.8977 22.108 59.375 24.7784C60.8523 27.4489 61.5909 30.7045 61.5909 34.5455ZM52.9659 34.5455C52.9659 32.2727 52.642 30.3523 51.9943 28.7841C51.358 27.2159 50.4375 26.0284 49.233 25.2216C48.0398 24.4148 46.6023 24.0114 44.9205 24.0114C43.25 24.0114 41.8125 24.4148 40.608 25.2216C39.4034 26.0284 38.4773 27.2159 37.8295 28.7841C37.1932 30.3523 36.875 32.2727 36.875 34.5455C36.875 36.8182 37.1932 38.7386 37.8295 40.3068C38.4773 41.875 39.4034 43.0625 40.608 43.8693C41.8125 44.6761 43.25 45.0795 44.9205 45.0795C46.6023 45.0795 48.0398 44.6761 49.233 43.8693C50.4375 43.0625 51.358 41.875 51.9943 40.3068C52.642 38.7386 52.9659 36.8182 52.9659 34.5455Z" fill="#333DA2"/>
<path d="M65.5505 58.4585L40.5 69.5L33 72.5" stroke="#333DA2" stroke-width="8" stroke-miterlimit="3.74669" stroke-linecap="round" stroke-linejoin="round"/>
</svg>
