<svg width="202" height="44" viewBox="0 0 202 44" fill="none" xmlns="http://www.w3.org/2000/svg">
<path d="M29.544 28.44C29.2667 28.7387 28.8293 29.048 28.232 29.368C27.6347 29.6667 26.9413 29.944 26.152 30.2C25.384 30.456 24.5947 30.6587 23.784 30.808C22.9733 30.9787 22.2053 31.064 21.48 31.064C19.56 31.064 17.832 30.7867 16.296 30.232C14.76 29.656 13.448 28.8667 12.36 27.864C11.272 26.84 10.44 25.6347 9.864 24.248C9.288 22.8614 9 21.3467 9 19.704C9 17.5494 9.32 15.6827 9.96 14.104C10.6213 12.504 11.5067 11.1813 12.616 10.136C13.7467 9.06933 15.0373 8.28 16.488 7.768C17.96 7.256 19.496 7 21.096 7C22.6107 7 23.9973 7.17067 25.256 7.512C26.5147 7.832 27.5813 8.23733 28.456 8.728L26.952 13.048C26.568 12.8347 26.056 12.6213 25.416 12.408C24.776 12.1947 24.1253 12.024 23.464 11.896C22.8027 11.7467 22.216 11.672 21.704 11.672C20.424 11.672 19.2933 11.832 18.312 12.152C17.3307 12.472 16.4987 12.952 15.816 13.592C15.1547 14.232 14.6533 15.032 14.312 15.992C13.9707 16.9307 13.8 18.0294 13.8 19.288C13.8 20.3974 13.992 21.4 14.376 22.296C14.76 23.1707 15.2933 23.9174 15.976 24.536C16.68 25.1547 17.5013 25.624 18.44 25.944C19.4 26.264 20.456 26.424 21.608 26.424C22.2693 26.424 22.8773 26.3814 23.432 26.296C23.9867 26.1894 24.456 26.0294 24.84 25.816V22.968H20.776V18.488H29.544V28.44Z" fill="#2837BD"/>
<path d="M39.967 31.192C38.6657 31.192 37.4817 30.936 36.415 30.424C35.3697 29.8907 34.5377 29.08 33.919 27.992C33.3003 26.904 32.991 25.5174 32.991 23.832C32.991 22.2534 33.311 20.888 33.951 19.736C34.591 18.584 35.4337 17.6987 36.479 17.08C37.5243 16.44 38.6337 16.12 39.807 16.12C41.1937 16.12 42.239 16.3547 42.943 16.824C43.6683 17.272 44.2657 17.7733 44.735 18.328L44.543 18.872L44.959 16.824H49.119V30.808H44.639V27.768L44.991 28.728C44.9483 28.728 44.8203 28.856 44.607 29.112C44.3937 29.3467 44.0737 29.6347 43.647 29.976C43.2417 30.296 42.7297 30.5734 42.111 30.808C41.5137 31.064 40.799 31.192 39.967 31.192ZM41.247 27.544C41.7803 27.544 42.2603 27.4694 42.687 27.32C43.1137 27.1494 43.487 26.9147 43.807 26.616C44.127 26.296 44.4043 25.9014 44.639 25.432V22.008C44.4683 21.5387 44.2123 21.144 43.871 20.824C43.5297 20.4827 43.1243 20.2267 42.655 20.056C42.1857 19.864 41.663 19.768 41.087 19.768C40.447 19.768 39.8497 19.9387 39.295 20.28C38.7617 20.6 38.335 21.048 38.015 21.624C37.695 22.2 37.535 22.8614 37.535 23.608C37.535 24.3547 37.7057 25.0267 38.047 25.624C38.3883 26.2214 38.8363 26.6907 39.391 27.032C39.967 27.3734 40.5857 27.544 41.247 27.544Z" fill="#2837BD"/>
<path d="M57.7993 16.824L58.1513 19.288L58.0872 19.096C58.6419 18.1574 59.3353 17.432 60.1673 16.92C60.9993 16.3867 62.0019 16.12 63.1753 16.12C63.9433 16.12 64.6153 16.2267 65.1913 16.44C65.7886 16.6533 66.2899 16.9734 66.6953 17.4C67.1006 17.8054 67.3779 18.3387 67.5273 19L67.3673 19.032C67.9646 18.1574 68.6793 17.4534 69.5113 16.92C70.3646 16.3867 71.2499 16.12 72.1673 16.12C73.5539 16.12 74.6526 16.5147 75.4632 17.304C76.2952 18.072 76.7219 19.0747 76.7432 20.312V30.808H72.2952V22.168C72.2739 21.5494 72.1779 21.048 72.0073 20.664C71.8366 20.2587 71.4419 20.0347 70.8232 19.992C70.0979 19.992 69.4793 20.248 68.9673 20.76C68.4766 21.2507 68.1033 21.8907 67.8473 22.68C67.6126 23.448 67.4953 24.248 67.4953 25.08V30.808H63.0153V22.168C62.9939 21.5494 62.8766 21.048 62.6633 20.664C62.4713 20.2587 62.0659 20.0347 61.4473 19.992C60.7432 19.992 60.1459 20.248 59.6553 20.76C59.1859 21.2507 58.8233 21.88 58.5673 22.648C58.3326 23.416 58.2153 24.2054 58.2153 25.016V30.808H53.7353V16.824H57.7993Z" fill="#2837BD"/>
<path d="M85.4243 16.824L85.7763 19.288L85.7122 19.096C86.2669 18.1574 86.9603 17.432 87.7923 16.92C88.6243 16.3867 89.6269 16.12 90.8003 16.12C91.5683 16.12 92.2403 16.2267 92.8163 16.44C93.4136 16.6533 93.9149 16.9734 94.3203 17.4C94.7256 17.8054 95.0029 18.3387 95.1523 19L94.9923 19.032C95.5896 18.1574 96.3043 17.4534 97.1363 16.92C97.9896 16.3867 98.8749 16.12 99.7923 16.12C101.179 16.12 102.278 16.5147 103.088 17.304C103.92 18.072 104.347 19.0747 104.368 20.312V30.808H99.9202V22.168C99.8989 21.5494 99.8029 21.048 99.6323 20.664C99.4616 20.2587 99.0669 20.0347 98.4482 19.992C97.7229 19.992 97.1043 20.248 96.5923 20.76C96.1016 21.2507 95.7283 21.8907 95.4723 22.68C95.2376 23.448 95.1203 24.248 95.1203 25.08V30.808H90.6403V22.168C90.6189 21.5494 90.5016 21.048 90.2883 20.664C90.0963 20.2587 89.6909 20.0347 89.0723 19.992C88.3682 19.992 87.7709 20.248 87.2803 20.76C86.8109 21.2507 86.4483 21.88 86.1923 22.648C85.9576 23.416 85.8402 24.2054 85.8402 25.016V30.808H81.3603V16.824H85.4243Z" fill="#2837BD"/>
<path d="M114.873 31.192C113.572 31.192 112.388 30.936 111.321 30.424C110.276 29.8907 109.444 29.08 108.825 27.992C108.207 26.904 107.897 25.5174 107.897 23.832C107.897 22.2534 108.217 20.888 108.857 19.736C109.497 18.584 110.34 17.6987 111.385 17.08C112.431 16.44 113.54 16.12 114.713 16.12C116.1 16.12 117.145 16.3547 117.849 16.824C118.575 17.272 119.172 17.7733 119.641 18.328L119.449 18.872L119.865 16.824H124.025V30.808H119.545V27.768L119.897 28.728C119.855 28.728 119.727 28.856 119.513 29.112C119.3 29.3467 118.98 29.6347 118.553 29.976C118.148 30.296 117.636 30.5734 117.017 30.808C116.42 31.064 115.705 31.192 114.873 31.192ZM116.153 27.544C116.687 27.544 117.167 27.4694 117.593 27.32C118.02 27.1494 118.393 26.9147 118.713 26.616C119.033 26.296 119.311 25.9014 119.545 25.432V22.008C119.375 21.5387 119.119 21.144 118.777 20.824C118.436 20.4827 118.031 20.2267 117.561 20.056C117.092 19.864 116.569 19.768 115.993 19.768C115.353 19.768 114.756 19.9387 114.201 20.28C113.668 20.6 113.241 21.048 112.921 21.624C112.601 22.2 112.441 22.8614 112.441 23.608C112.441 24.3547 112.612 25.0267 112.953 25.624C113.295 26.2214 113.743 26.6907 114.297 27.032C114.873 27.3734 115.492 27.544 116.153 27.544Z" fill="#2837BD"/>
<path d="M137.41 31.192C136.578 31.192 135.756 31.0427 134.946 30.744C134.156 30.424 133.495 29.976 132.962 29.4L133.09 28.088V37.528H128.642V16.504H132.481L133.121 19.224L132.77 18.264C133.495 17.6454 134.306 17.1333 135.201 16.728C136.097 16.3227 137.132 16.12 138.305 16.12C139.607 16.12 140.769 16.4293 141.793 17.048C142.817 17.6453 143.617 18.52 144.193 19.672C144.791 20.8027 145.089 22.168 145.089 23.768C145.089 25.3467 144.759 26.6907 144.097 27.8C143.436 28.9094 142.53 29.752 141.378 30.328C140.226 30.904 138.903 31.192 137.41 31.192ZM136.513 27.672C137.239 27.672 137.9 27.512 138.497 27.192C139.116 26.872 139.607 26.424 139.969 25.848C140.353 25.2507 140.546 24.5787 140.546 23.832C140.546 23.0427 140.375 22.36 140.033 21.784C139.713 21.1867 139.265 20.728 138.689 20.408C138.135 20.0667 137.516 19.896 136.834 19.896C136.236 19.896 135.703 19.9814 135.234 20.152C134.786 20.3014 134.38 20.536 134.018 20.856C133.676 21.1547 133.377 21.5387 133.121 22.008V25.432C133.292 25.88 133.538 26.2747 133.858 26.616C134.178 26.9574 134.561 27.224 135.009 27.416C135.479 27.5867 135.98 27.672 136.513 27.672Z" fill="#2837BD"/>
<path d="M154.498 31.192C153.197 31.192 152.013 30.936 150.946 30.424C149.901 29.8907 149.069 29.08 148.45 27.992C147.832 26.904 147.522 25.5174 147.522 23.832C147.522 22.2534 147.842 20.888 148.482 19.736C149.122 18.584 149.965 17.6987 151.01 17.08C152.056 16.44 153.165 16.12 154.338 16.12C155.725 16.12 156.77 16.3547 157.474 16.824C158.2 17.272 158.797 17.7733 159.266 18.328L159.074 18.872L159.49 16.824H163.65V30.808H159.17V27.768L159.522 28.728C159.48 28.728 159.352 28.856 159.138 29.112C158.925 29.3467 158.605 29.6347 158.178 29.976C157.773 30.296 157.261 30.5734 156.642 30.808C156.045 31.064 155.33 31.192 154.498 31.192ZM155.778 27.544C156.312 27.544 156.792 27.4694 157.218 27.32C157.645 27.1494 158.018 26.9147 158.338 26.616C158.658 26.296 158.936 25.9014 159.17 25.432V22.008C159 21.5387 158.744 21.144 158.402 20.824C158.061 20.4827 157.656 20.2267 157.186 20.056C156.717 19.864 156.194 19.768 155.618 19.768C154.978 19.768 154.381 19.9387 153.826 20.28C153.293 20.6 152.866 21.048 152.546 21.624C152.226 22.2 152.066 22.8614 152.066 23.608C152.066 24.3547 152.237 25.0267 152.578 25.624C152.92 26.2214 153.368 26.6907 153.922 27.032C154.498 27.3734 155.117 27.544 155.778 27.544Z" fill="#2837BD"/>
<path d="M170.57 37.2679V30.1319L164.49 13.0759H169.386L172.458 22.7719C172.565 23.0919 172.682 23.4759 172.81 23.9239C172.96 24.3719 173.098 24.8092 173.226 25.2359C173.354 25.6626 173.461 26.0252 173.546 26.3239H173.674C174.378 25.2572 174.954 24.0839 175.402 22.8039C175.872 21.5239 176.213 20.0946 176.426 18.5159C176.64 16.9159 176.746 15.1026 176.746 13.0759L189.428 9.048C189.428 11.3093 192.428 6.85989 188.928 9.51589C188.928 12.3639 183.002 24.5639 181.082 25.5879C181.082 25.5879 179.082 28.4679 175.338 30.2279L179.082 37.2679H170.57Z" fill="#2837BD"/>
<path d="M170.57 37.2679V30.1319L164.49 13.0759H169.386L172.458 22.7719C172.565 23.0919 172.682 23.4759 172.81 23.9239C172.96 24.3719 173.098 24.8092 173.226 25.2359C173.354 25.6626 173.461 26.0252 173.546 26.3239H173.674C174.378 25.2572 174.954 24.0839 175.402 22.8039C175.872 21.5239 176.213 20.0946 176.426 18.5159C176.64 16.9159 176.746 15.1026 176.746 13.0759L189.428 9.048C189.428 11.3093 192.428 6.85989 188.928 9.51589C188.928 12.3639 183.002 24.5639 181.082 25.5879C181.082 25.5879 179.082 28.4679 175.338 30.2279L179.082 37.2679H170.57Z" fill="#2837BD"/>
</svg>
