<svg width="189" height="38" viewBox="0 0 189 38" fill="none" xmlns="http://www.w3.org/2000/svg">
<path d="M23.544 25.44C23.2667 25.7387 22.8293 26.048 22.232 26.368C21.6347 26.6667 20.9413 26.944 20.152 27.2C19.384 27.456 18.5947 27.6587 17.784 27.808C16.9733 27.9787 16.2053 28.064 15.48 28.064C13.56 28.064 11.832 27.7867 10.296 27.232C8.76 26.656 7.448 25.8667 6.36 24.864C5.272 23.84 4.44 22.6347 3.864 21.248C3.288 19.8614 3 18.3467 3 16.704C3 14.5494 3.32 12.6827 3.96 11.104C4.62133 9.504 5.50667 8.18134 6.616 7.136C7.74667 6.06933 9.03733 5.28 10.488 4.768C11.96 4.256 13.496 4 15.096 4C16.6107 4 17.9973 4.17067 19.256 4.512C20.5147 4.832 21.5813 5.23733 22.456 5.728L20.952 10.048C20.568 9.83466 20.056 9.62133 19.416 9.40799C18.776 9.19466 18.1253 9.02399 17.464 8.89599C16.8027 8.74666 16.216 8.67199 15.704 8.67199C14.424 8.67199 13.2933 8.83199 12.312 9.15199C11.3307 9.47199 10.4987 9.95199 9.816 10.592C9.15467 11.232 8.65333 12.032 8.312 12.992C7.97067 13.9307 7.8 15.0294 7.8 16.288C7.8 17.3974 7.992 18.4 8.376 19.296C8.76 20.1707 9.29333 20.9174 9.976 21.536C10.68 22.1547 11.5013 22.624 12.44 22.944C13.4 23.264 14.456 23.424 15.608 23.424C16.2693 23.424 16.8773 23.3814 17.432 23.296C17.9867 23.1894 18.456 23.0294 18.84 22.816V19.968H14.776V15.488H23.544V25.44Z" fill="white"/>
<path d="M33.967 28.192C32.6657 28.192 31.4817 27.936 30.415 27.424C29.3697 26.8907 28.5377 26.08 27.919 24.992C27.3003 23.904 26.991 22.5174 26.991 20.832C26.991 19.2534 27.311 17.888 27.951 16.736C28.591 15.584 29.4337 14.6987 30.479 14.08C31.5243 13.44 32.6337 13.12 33.807 13.12C35.1937 13.12 36.239 13.3547 36.943 13.824C37.6683 14.272 38.2657 14.7733 38.735 15.328L38.543 15.872L38.959 13.824H43.119V27.808H38.639V24.768L38.991 25.728C38.9483 25.728 38.8203 25.856 38.607 26.112C38.3937 26.3467 38.0737 26.6347 37.647 26.976C37.2417 27.296 36.7297 27.5734 36.111 27.808C35.5137 28.064 34.799 28.192 33.967 28.192ZM35.247 24.544C35.7803 24.544 36.2603 24.4694 36.687 24.32C37.1137 24.1494 37.487 23.9147 37.807 23.616C38.127 23.296 38.4043 22.9014 38.639 22.432V19.008C38.4683 18.5387 38.2123 18.144 37.871 17.824C37.5297 17.4827 37.1243 17.2267 36.655 17.056C36.1857 16.864 35.663 16.768 35.087 16.768C34.447 16.768 33.8497 16.9387 33.295 17.28C32.7617 17.6 32.335 18.048 32.015 18.624C31.695 19.2 31.535 19.8614 31.535 20.608C31.535 21.3547 31.7057 22.0267 32.047 22.624C32.3883 23.2214 32.8363 23.6907 33.391 24.032C33.967 24.3734 34.5857 24.544 35.247 24.544Z" fill="white"/>
<path d="M51.7993 13.824L52.1513 16.288L52.0872 16.096C52.6419 15.1574 53.3353 14.432 54.1673 13.92C54.9993 13.3867 56.0019 13.12 57.1753 13.12C57.9433 13.12 58.6153 13.2267 59.1913 13.44C59.7886 13.6533 60.2899 13.9734 60.6953 14.4C61.1006 14.8054 61.3779 15.3387 61.5273 16L61.3673 16.032C61.9646 15.1574 62.6793 14.4534 63.5113 13.92C64.3646 13.3867 65.2499 13.12 66.1673 13.12C67.5539 13.12 68.6526 13.5147 69.4632 14.304C70.2952 15.072 70.7219 16.0747 70.7432 17.312V27.808H66.2952V19.168C66.2739 18.5494 66.1779 18.048 66.0073 17.664C65.8366 17.2587 65.4419 17.0347 64.8232 16.992C64.0979 16.992 63.4793 17.248 62.9673 17.76C62.4766 18.2507 62.1033 18.8907 61.8473 19.68C61.6126 20.448 61.4953 21.248 61.4953 22.08V27.808H57.0153V19.168C56.9939 18.5494 56.8766 18.048 56.6633 17.664C56.4713 17.2587 56.0659 17.0347 55.4473 16.992C54.7432 16.992 54.1459 17.248 53.6553 17.76C53.1859 18.2507 52.8233 18.88 52.5673 19.648C52.3326 20.416 52.2153 21.2054 52.2153 22.016V27.808H47.7353V13.824H51.7993Z" fill="white"/>
<path d="M79.4243 13.824L79.7763 16.288L79.7122 16.096C80.2669 15.1574 80.9603 14.432 81.7923 13.92C82.6243 13.3867 83.6269 13.12 84.8003 13.12C85.5683 13.12 86.2403 13.2267 86.8163 13.44C87.4136 13.6533 87.9149 13.9734 88.3203 14.4C88.7256 14.8054 89.0029 15.3387 89.1523 16L88.9923 16.032C89.5896 15.1574 90.3043 14.4534 91.1363 13.92C91.9896 13.3867 92.8749 13.12 93.7923 13.12C95.1789 13.12 96.2776 13.5147 97.0882 14.304C97.9202 15.072 98.3469 16.0747 98.3682 17.312V27.808H93.9202V19.168C93.8989 18.5494 93.8029 18.048 93.6323 17.664C93.4616 17.2587 93.0669 17.0347 92.4482 16.992C91.7229 16.992 91.1043 17.248 90.5923 17.76C90.1016 18.2507 89.7283 18.8907 89.4723 19.68C89.2376 20.448 89.1203 21.248 89.1203 22.08V27.808H84.6403V19.168C84.6189 18.5494 84.5016 18.048 84.2883 17.664C84.0963 17.2587 83.6909 17.0347 83.0723 16.992C82.3682 16.992 81.7709 17.248 81.2803 17.76C80.8109 18.2507 80.4483 18.88 80.1923 19.648C79.9576 20.416 79.8402 21.2054 79.8402 22.016V27.808H75.3603V13.824H79.4243Z" fill="white"/>
<path d="M108.873 28.192C107.572 28.192 106.388 27.936 105.321 27.424C104.276 26.8907 103.444 26.08 102.825 24.992C102.207 23.904 101.897 22.5174 101.897 20.832C101.897 19.2534 102.217 17.888 102.857 16.736C103.497 15.584 104.34 14.6987 105.385 14.08C106.431 13.44 107.54 13.12 108.713 13.12C110.1 13.12 111.145 13.3547 111.849 13.824C112.575 14.272 113.172 14.7733 113.641 15.328L113.449 15.872L113.865 13.824H118.025V27.808H113.545V24.768L113.897 25.728C113.855 25.728 113.727 25.856 113.513 26.112C113.3 26.3467 112.98 26.6347 112.553 26.976C112.148 27.296 111.636 27.5734 111.017 27.808C110.42 28.064 109.705 28.192 108.873 28.192ZM110.153 24.544C110.687 24.544 111.167 24.4694 111.593 24.32C112.02 24.1494 112.393 23.9147 112.713 23.616C113.033 23.296 113.311 22.9014 113.545 22.432V19.008C113.375 18.5387 113.119 18.144 112.777 17.824C112.436 17.4827 112.031 17.2267 111.561 17.056C111.092 16.864 110.569 16.768 109.993 16.768C109.353 16.768 108.756 16.9387 108.201 17.28C107.668 17.6 107.241 18.048 106.921 18.624C106.601 19.2 106.441 19.8614 106.441 20.608C106.441 21.3547 106.612 22.0267 106.953 22.624C107.295 23.2214 107.743 23.6907 108.297 24.032C108.873 24.3734 109.492 24.544 110.153 24.544Z" fill="white"/>
<path d="M131.41 28.192C130.578 28.192 129.756 28.0427 128.946 27.744C128.156 27.424 127.495 26.976 126.962 26.4L127.09 25.088V34.528H122.642V13.504H126.481L127.121 16.224L126.77 15.264C127.495 14.6454 128.306 14.1333 129.201 13.728C130.097 13.3227 131.132 13.12 132.305 13.12C133.607 13.12 134.769 13.4293 135.793 14.048C136.817 14.6453 137.617 15.52 138.193 16.672C138.791 17.8027 139.089 19.168 139.089 20.768C139.089 22.3467 138.759 23.6907 138.097 24.8C137.436 25.9094 136.53 26.752 135.378 27.328C134.226 27.904 132.903 28.192 131.41 28.192ZM130.513 24.672C131.239 24.672 131.9 24.512 132.497 24.192C133.116 23.872 133.607 23.424 133.969 22.848C134.353 22.2507 134.546 21.5787 134.546 20.832C134.546 20.0427 134.375 19.36 134.033 18.784C133.713 18.1867 133.265 17.728 132.689 17.408C132.135 17.0667 131.516 16.896 130.834 16.896C130.236 16.896 129.703 16.9814 129.234 17.152C128.786 17.3014 128.38 17.536 128.018 17.856C127.676 18.1547 127.377 18.5387 127.121 19.008V22.432C127.292 22.88 127.538 23.2747 127.858 23.616C128.178 23.9574 128.561 24.224 129.009 24.416C129.479 24.5867 129.98 24.672 130.513 24.672Z" fill="white"/>
<path d="M148.498 28.192C147.197 28.192 146.013 27.936 144.946 27.424C143.901 26.8907 143.069 26.08 142.45 24.992C141.832 23.904 141.522 22.5174 141.522 20.832C141.522 19.2534 141.842 17.888 142.482 16.736C143.122 15.584 143.965 14.6987 145.01 14.08C146.056 13.44 147.165 13.12 148.338 13.12C149.725 13.12 150.77 13.3547 151.474 13.824C152.2 14.272 152.797 14.7733 153.266 15.328L153.074 15.872L153.49 13.824H157.65V27.808H153.17V24.768L153.522 25.728C153.48 25.728 153.352 25.856 153.138 26.112C152.925 26.3467 152.605 26.6347 152.178 26.976C151.773 27.296 151.261 27.5734 150.642 27.808C150.045 28.064 149.33 28.192 148.498 28.192ZM149.778 24.544C150.312 24.544 150.792 24.4694 151.218 24.32C151.645 24.1494 152.018 23.9147 152.338 23.616C152.658 23.296 152.936 22.9014 153.17 22.432V19.008C153 18.5387 152.744 18.144 152.402 17.824C152.061 17.4827 151.656 17.2267 151.186 17.056C150.717 16.864 150.194 16.768 149.618 16.768C148.978 16.768 148.381 16.9387 147.826 17.28C147.293 17.6 146.866 18.048 146.546 18.624C146.226 19.2 146.066 19.8614 146.066 20.608C146.066 21.3547 146.237 22.0267 146.578 22.624C146.92 23.2214 147.368 23.6907 147.922 24.032C148.498 24.3734 149.117 24.544 149.778 24.544Z" fill="white"/>
<path d="M164.57 34.2679V27.1319L158.49 10.0759H163.386L166.458 19.7719C166.565 20.0919 166.682 20.4759 166.81 20.9239C166.96 21.3719 167.098 21.8092 167.226 22.2359C167.354 22.6626 167.461 23.0252 167.546 23.3239H167.674C168.378 22.2572 168.954 21.0839 169.402 19.8039C169.872 18.5239 170.213 17.0946 170.426 15.5159C170.64 13.9159 170.746 12.1026 170.746 10.0759L183.428 6.048C183.428 8.30933 186.428 3.85989 182.928 6.51589C182.928 9.36389 177.002 21.5639 175.082 22.5879C175.082 22.5879 173.082 25.4679 169.338 27.2279L173.082 34.2679H164.57Z" fill="white"/>
<path d="M164.57 34.2679V27.1319L158.49 10.0759H163.386L166.458 19.7719C166.565 20.0919 166.682 20.4759 166.81 20.9239C166.96 21.3719 167.098 21.8092 167.226 22.2359C167.354 22.6626 167.461 23.0252 167.546 23.3239H167.674C168.378 22.2572 168.954 21.0839 169.402 19.8039C169.872 18.5239 170.213 17.0946 170.426 15.5159C170.64 13.9159 170.746 12.1026 170.746 10.0759L183.428 6.048C183.428 8.30933 186.428 3.85989 182.928 6.51589C182.928 9.36389 177.002 21.5639 175.082 22.5879C175.082 22.5879 173.082 25.4679 169.338 27.2279L173.082 34.2679H164.57Z" fill="white"/>
</svg>
