<?xml version="1.0" standalone="no"?>
<!DOCTYPE svg PUBLIC "-//W3C//DTD SVG 20010904//EN"
 "http://www.w3.org/TR/2001/REC-SVG-20010904/DTD/svg10.dtd">
<svg version="1.0" xmlns="http://www.w3.org/2000/svg"
 width="981.000000pt" height="958.000000pt" viewBox="0 0 981.000000 958.000000"
 preserveAspectRatio="xMidYMid meet">
<metadata>
Created by potrace 1.16, written by Peter Selinger 2001-2019
</metadata>
<g transform="translate(0.000000,958.000000) scale(0.100000,-0.100000)"
fill="#ffffff" stroke="none">
<path d="M3030 9570 c-1147 -4 -2124 -11 -2173 -14 -260 -20 -503 -139 -649
-321 -100 -124 -168 -312 -188 -523 -15 -157 -14 -7693 1 -7764 20 -97 66
-177 148 -259 63 -64 93 -85 181 -127 110 -54 245 -92 395 -112 207 -28 3603
-44 3592 -17 -71 160 -107 306 -107 433 l0 81 -577 6 c-318 4 -1050 11 -1628
17 -688 8 -1065 15 -1094 22 -153 39 -287 243 -340 519 -43 228 -44 273 -37
1879 15 3606 26 4930 42 5014 45 236 207 409 462 497 90 31 200 50 347 60 247
16 2107 28 4387 29 l2216 0 58 -21 c110 -41 199 -155 242 -311 16 -59 17 -165
14 -1585 l-2 -1522 57 -6 c215 -23 352 -56 417 -100 20 -14 39 -25 42 -25 3 0
3 717 1 1593 -4 1743 -1 1657 -63 1907 -80 323 -232 530 -443 607 -53 20 -96
26 -223 33 -250 14 -2808 19 -5078 10z"/>
<path d="M1469 7898 c-50 -34 -91 -121 -92 -200 -2 -91 19 -153 68 -205 l42
-43 2398 0 2398 0 33 21 c20 12 43 41 59 73 62 128 34 287 -64 353 l-34 23
-2387 0 -2387 0 -34 -22z"/>
<path d="M1445 6307 c-50 -50 -68 -102 -68 -199 0 -81 36 -165 86 -200 l32
-23 2388 -3 c2662 -2 2420 -9 2477 69 35 48 55 135 46 203 -8 68 -51 153 -90
177 -30 18 -86 19 -2430 19 l-2399 0 -42 -43z"/>
<path d="M6665 5713 c-436 -34 -796 -129 -1149 -303 -539 -264 -975 -675
-1269 -1195 -168 -298 -287 -662 -333 -1022 -22 -173 -22 -495 0 -668 110
-840 565 -1560 1288 -2035 201 -132 468 -260 695 -334 955 -308 1973 -144
2765 446 530 395 913 969 1069 1603 56 230 72 373 73 650 0 261 -11 377 -55
580 -195 892 -854 1644 -1789 2043 -421 179 -901 267 -1295 235z m360 -434
c904 -68 1688 -584 2080 -1369 154 -308 232 -623 242 -976 10 -327 -31 -584
-138 -884 -78 -217 -242 -503 -400 -696 -397 -488 -1012 -821 -1659 -900 -203
-24 -554 -16 -750 19 -434 77 -834 257 -1169 527 -125 101 -327 309 -421 435
-241 321 -393 684 -457 1086 -25 160 -25 529 0 684 85 521 319 980 684 1341
525 521 1251 789 1988 733z"/>
<path d="M6566 4370 c-216 -34 -417 -133 -531 -262 -57 -65 -127 -206 -155
-313 -23 -88 -45 -267 -36 -290 4 -13 40 -15 216 -15 l210 0 0 51 c0 77 36
216 74 284 38 69 115 128 206 159 71 24 262 33 340 16 177 -39 286 -151 325
-337 26 -124 13 -278 -35 -387 -43 -102 -249 -365 -431 -552 -212 -218 -234
-269 -254 -591 l-7 -103 221 0 221 0 0 83 c1 113 23 228 55 283 15 25 101 125
192 222 273 292 401 482 455 677 19 68 22 105 22 255 0 149 -3 187 -22 254
-82 295 -289 481 -616 552 -84 19 -365 27 -450 14z"/>
<path d="M6490 1350 l0 -230 225 0 225 0 0 230 0 230 -225 0 -225 0 0 -230z"/>
<path d="M1427 4702 c-71 -78 -66 -406 7 -454 6 -4 507 -8 1114 -8 l1102 0 20
32 c55 91 49 369 -11 429 -19 19 -45 19 -1117 19 -1034 0 -1100 -1 -1115 -18z"/>
<path d="M1402 3155 c-7 -14 -17 -68 -23 -119 -13 -102 -1 -242 23 -294 l13
-27 794 0 794 0 15 40 c21 55 22 323 1 380 l-14 40 -796 3 -796 2 -11 -25z"/>
</g>
</svg>
